<svg xmlns="http://www.w3.org/2000/svg" xmlns:xlink="http://www.w3.org/1999/xlink" viewBox="0 0 546 570"><defs><style>.cls-1{isolation:isolate;}.cls-2{fill:url(#linear-gradient);}.cls-3{fill:url(#linear-gradient-2);}.cls-4{fill:url(#linear-gradient-3);}.cls-5{fill:url(#linear-gradient-4);}.cls-6{fill:url(#linear-gradient-5);}.cls-34,.cls-43,.cls-7{fill:#fff;}.cls-7{fill-rule:evenodd;opacity:0.19;}.cls-8{fill:url(#linear-gradient-6);}.cls-9{fill:url(#linear-gradient-7);}.cls-10{fill:url(#linear-gradient-8);}.cls-11{fill:url(#linear-gradient-9);}.cls-12{fill:url(#linear-gradient-10);}.cls-13{fill:url(#linear-gradient-11);}.cls-14{fill:url(#linear-gradient-12);}.cls-15{fill:url(#linear-gradient-13);}.cls-16{fill:url(#linear-gradient-14);}.cls-17{fill:url(#linear-gradient-15);}.cls-18{fill:url(#linear-gradient-16);}.cls-19,.cls-24,.cls-27{opacity:0.3;mix-blend-mode:multiply;}.cls-19{fill:url(#linear-gradient-17);}.cls-20{fill:url(#linear-gradient-18);}.cls-21{fill:url(#linear-gradient-19);}.cls-22{fill:url(#linear-gradient-20);}.cls-23{fill:url(#linear-gradient-21);}.cls-24{fill:url(#linear-gradient-22);}.cls-25{fill:url(#linear-gradient-23);}.cls-26,.cls-27{fill:url(#linear-gradient-24);}.cls-28{fill:url(#linear-gradient-26);}.cls-29{fill:url(#linear-gradient-27);}.cls-30{fill:#dcdcdc;}.cls-31,.cls-49{fill:#ececec;}.cls-32{fill:#a8a8a8;}.cls-33{fill:#c8c8c8;}.cls-35{fill:#f8f8f8;}.cls-36,.cls-37{fill:#d4d4d4;}.cls-36,.cls-40{opacity:0.4;}.cls-38{opacity:0.7;}.cls-39,.cls-44{fill:#707070;}.cls-41{fill:#375a64;}.cls-42{fill:#2b454e;}.cls-43,.cls-47{opacity:0.6;}.cls-44,.cls-45{opacity:0.1;}.cls-46,.cls-49{opacity:0.5;}.cls-48{fill:#1a2e35;}</style><linearGradient id="linear-gradient" x1="65.77" y1="239.2" x2="65.77" y2="399.84" gradientUnits="userSpaceOnUse"><stop offset="0" stop-color="#8e5c3b"/><stop offset="0.17" stop-color="#fde3a7"/><stop offset="1" stop-color="#ffcf4b"/></linearGradient><linearGradient id="linear-gradient-2" x1="65.87" y1="213.36" x2="65.87" y2="294.87" gradientUnits="userSpaceOnUse"><stop offset="0.01" stop-color="#6e3c1b"/><stop offset="0.3" stop-color="#8c5f38"/><stop offset="0.92" stop-color="#d8b683"/><stop offset="1" stop-color="#e1c18c"/></linearGradient><linearGradient id="linear-gradient-3" x1="70.75" y1="151.59" x2="70.75" y2="314.76" gradientUnits="userSpaceOnUse"><stop offset="0.01" stop-color="#f5ab35"/><stop offset="0.08" stop-color="#f8bb4e"/><stop offset="0.17" stop-color="#fbc865"/><stop offset="0.27" stop-color="#fdd376"/><stop offset="0.39" stop-color="#feda82"/><stop offset="0.56" stop-color="#ffdf89"/><stop offset="1" stop-color="#ffe08b"/></linearGradient><linearGradient id="linear-gradient-4" x1="61.7" y1="148.46" x2="163.32" y2="274.81" gradientUnits="userSpaceOnUse"><stop offset="0" stop-color="#f9bf3b"/><stop offset="0.05" stop-color="#facc62"/><stop offset="0.14" stop-color="#fce1a5"/><stop offset="0.21" stop-color="#fef1d6"/><stop offset="0.27" stop-color="#fffbf4"/><stop offset="0.3" stop-color="#fff"/><stop offset="0.65" stop-color="#ffcf4b"/><stop offset="1" stop-color="#9e6c4b"/></linearGradient><linearGradient id="linear-gradient-5" x1="115.62" y1="247.91" x2="267.85" y2="247.91" gradientUnits="userSpaceOnUse"><stop offset="0.01" stop-color="#f9b32f"/><stop offset="0.31" stop-color="#f9b431"/><stop offset="0.48" stop-color="#f9b73a"/><stop offset="0.62" stop-color="#fabd48"/><stop offset="0.74" stop-color="#fac55b"/><stop offset="0.85" stop-color="#fbcf75"/><stop offset="0.95" stop-color="#fcdc94"/><stop offset="1" stop-color="#fde3a7"/></linearGradient><linearGradient id="linear-gradient-6" x1="275.87" y1="212.58" x2="348.01" y2="212.58" gradientUnits="userSpaceOnUse"><stop offset="0.45" stop-color="#f9b32f"/><stop offset="1" stop-color="#fde3a7"/></linearGradient><linearGradient id="linear-gradient-7" x1="427.18" y1="212.28" x2="499.31" y2="212.28" gradientUnits="userSpaceOnUse"><stop offset="0.41" stop-color="#f9b32f"/><stop offset="1" stop-color="#fde3a7"/></linearGradient><linearGradient id="linear-gradient-8" x1="347.45" y1="221.58" x2="421.06" y2="221.58" gradientUnits="userSpaceOnUse"><stop offset="0.49" stop-color="#f9b32f"/><stop offset="1" stop-color="#fde3a7"/></linearGradient><linearGradient id="linear-gradient-9" x1="-3412.68" y1="135.52" x2="-3362.86" y2="169.37" gradientTransform="matrix(-1, 0, 0, 1, -2933.71, 0)" gradientUnits="userSpaceOnUse"><stop offset="0" stop-color="#36a9e1"/><stop offset="0.03" stop-color="#304ffe"/><stop offset="1" stop-color="#3e3e3e"/></linearGradient><linearGradient id="linear-gradient-10" x1="467.76" y1="165.55" x2="498.33" y2="165.55" gradientUnits="userSpaceOnUse"><stop offset="0" stop-color="#36a9e1"/><stop offset="1" stop-color="#304ffe"/></linearGradient><linearGradient id="linear-gradient-11" x1="-3196.38" y1="-812.57" x2="-3186.69" y2="-812.57" gradientTransform="matrix(-0.83, -0.56, -0.56, 0.83, -2603.54, -865.93)" gradientUnits="userSpaceOnUse"><stop offset="0" stop-color="#311944"/><stop offset="1" stop-color="#6b3976"/></linearGradient><linearGradient id="linear-gradient-12" x1="-3435.67" y1="238.81" x2="-3419.85" y2="191.34" gradientTransform="matrix(-1, 0, 0, 1, -2933.71, 0)" gradientUnits="userSpaceOnUse"><stop offset="0" stop-color="#ffc444"/><stop offset="1" stop-color="#f36f56"/></linearGradient><linearGradient id="linear-gradient-13" x1="-3438.32" y1="217.01" x2="-3432.89" y2="217.01" gradientTransform="matrix(-1, 0, 0, 1, -2933.71, 0)" xlink:href="#linear-gradient-11"/><linearGradient id="linear-gradient-14" x1="-3441.47" y1="231.93" x2="-3432.6" y2="205.31" xlink:href="#linear-gradient-12"/><linearGradient id="linear-gradient-15" x1="514.43" y1="178.42" x2="487.45" y2="207.98" xlink:href="#linear-gradient-10"/><linearGradient id="linear-gradient-16" x1="480.59" y1="183.5" x2="473.65" y2="222.57" xlink:href="#linear-gradient-10"/><linearGradient id="linear-gradient-17" x1="-3421.19" y1="232.43" x2="-3411.78" y2="202.65" gradientTransform="matrix(-1, 0, 0, 1, -2933.71, 0)" gradientUnits="userSpaceOnUse"><stop offset="0" stop-color="#aa80f9"/><stop offset="1" stop-color="#6165d7"/></linearGradient><linearGradient id="linear-gradient-18" x1="497.45" y1="162.92" x2="470.46" y2="192.47" xlink:href="#linear-gradient-10"/><linearGradient id="linear-gradient-19" x1="446.41" y1="173.8" x2="482.09" y2="173.8" xlink:href="#linear-gradient-10"/><linearGradient id="linear-gradient-20" x1="2276.43" y1="-264.94" x2="2277.11" y2="-282.9" gradientTransform="translate(-1823.55 12.87) rotate(10.28)" xlink:href="#linear-gradient-12"/><linearGradient id="linear-gradient-21" x1="2276.22" y1="-280.79" x2="2275.93" y2="-257.54" gradientTransform="translate(-1823.55 12.87) rotate(10.28)" xlink:href="#linear-gradient-12"/><linearGradient id="linear-gradient-22" x1="446.41" y1="181.99" x2="482.09" y2="181.99" gradientTransform="matrix(1, 0, 0, 1, 0, 0)" xlink:href="#linear-gradient-17"/><linearGradient id="linear-gradient-23" x1="-1909.26" y1="182.72" x2="-1883.63" y2="182.72" gradientTransform="matrix(-1, 0, 0, 1, -1423.72, 0)" gradientUnits="userSpaceOnUse"><stop offset="0" stop-color="#40447e"/><stop offset="1" stop-color="#3c3b6b"/></linearGradient><linearGradient id="linear-gradient-24" x1="-1925.66" y1="166.55" x2="-1908.85" y2="183.22" xlink:href="#linear-gradient-23"/><linearGradient id="linear-gradient-26" x1="438.57" y1="166.92" x2="464.29" y2="166.92" xlink:href="#linear-gradient-10"/><linearGradient id="linear-gradient-27" x1="469.49" y1="177.66" x2="460.96" y2="185.7" gradientTransform="matrix(1, 0, 0, 1, 0, 0)" xlink:href="#linear-gradient-12"/></defs><g class="cls-1"><g id="Layer_1" data-name="Layer 1"><g id="M"><polygon class="cls-2" points="98.13 299.09 97.9 422.37 33.4 421.42 33.64 307.42 43.63 278.86 71.24 261.72 90.04 272.43 95.99 290.05 98.13 299.09"/><path class="cls-3" d="M98.12,299.6l-.69-63.8a41.23,41.23,0,0,0-5.71-4.52,35.16,35.16,0,0,0-15.47-6.19c-2.45-.29-8.31-1-14,1.67C57.38,229,54.06,233,49.35,242.47a149.73,149.73,0,0,0-13.09,39.74,183.89,183.89,0,0,0-2.65,24.09c1.47-2.71,3.79-7.1,6.46-12.66,3.81-7.94,4.5-10.26,7.38-14.05,2.56-3.36,5.81-7.63,11.66-9.52a20.49,20.49,0,0,1,11.19-.23c5.42,1.29,8.77,4.32,12.85,8.09A57.06,57.06,0,0,1,94,291.66Z"/><path class="cls-4" d="M33.38,151.59l74.94.77L98.1,241.56A60.6,60.6,0,0,0,89.44,236c-4.54-2.41-8-4.26-12.91-4.82a23.9,23.9,0,0,0-13.1,1.93c-5.64,2.73-8.58,7.44-10.79,11.37a140.5,140.5,0,0,0-13.29,33.32,230.9,230.9,0,0,0-5.78,37l-.39-92.28Z"/><path class="cls-5" d="M183.91,255.88l-76-103.7c-1.88.34-4.58.89-7.77,1.76-6.28,1.72-12.87,3.52-19.08,7.78-3.32,2.27-9.8,6.71-12.9,14.84-3,7.86-1.22,14.92.53,21.9a63.12,63.12,0,0,0,12.19,24.2L121,276q2.27,1.26,4.77,2.48a94.58,94.58,0,0,0,10.07,4.24c7.78,2.47,16.35-.79,20.32-2.3a45.71,45.71,0,0,0,19.61-14.66Z"/><path class="cls-6" d="M267.36,152.67q.25,46.88.49,93.75L186.34,343l-16.54.16-54.18-74.48A49.41,49.41,0,0,0,120.7,272a47,47,0,0,0,14.08,5.23c10.55,1.75,20.12-4.9,27.66-10.14a72.07,72.07,0,0,0,17.35-17.19l69.65-83.7q5.28-6.75,10.55-13.49Z"/><path class="cls-7" d="M96.07,277.32A30.1,30.1,0,1,1,66,307.42a30.1,30.1,0,0,1,30.09-30.1"/><path class="cls-7" d="M105.15,127.53a30.1,30.1,0,1,1-30.1,30.1,30.1,30.1,0,0,1,30.1-30.1"/></g><path class="cls-8" d="M311.94,199.72a35.89,35.89,0,0,0-20.44,6.37V153.3H275.87v83.33h.05a35.8,35.8,0,0,0,3.51,14.65l14.44-25a20.45,20.45,0,1,1,2.62,22.88l-8.05,13.95a36,36,0,1,0,23.5-63.37Z"/><path class="cls-9" d="M463.25,199.43a35.86,35.86,0,0,0-20.44,6.36V153H427.18v83.33h0A35.92,35.92,0,0,0,430.73,251l14.45-25a20.45,20.45,0,1,1,2.62,22.88l-8.06,14a36,36,0,1,0,23.51-63.36Z"/><path class="cls-10" d="M372.27,254.49,397.8,229.1c11.07-11.35,18.87-22.55,18.87-32.76,0-15.46-13.48-24.36-33.05-24.36h-5.94l-29.68,0v16.54h34.07c9.23.25,14.74,3.62,14.74,10.7,0,5.25-4.82,12.77-11.91,19.72l-37.45,38.57v13.76h73.61V254.49Z"/><path class="cls-11" d="M473.22,153.59c1.24-.81.11-3.15,0-8.17s1-6.77.68-8.56a3.77,3.77,0,0,0-.44-1.17c-1.31-2.48-4.38-3.14-5.18-3.32-4.93-1.06-9.21,2.48-9.6,2.82-3.31,2.83-2.3,5-5,9.1-4.83,7.4-11.78,5.72-14.23,11.92-1.51,3.78-.68,8.88,1.84,10.34,3.33,1.93,9.47-3,14.09-6.39a37.58,37.58,0,0,0,7.7-7.64,2.8,2.8,0,0,1,1.71-1,3,3,0,0,1,2,.71C468.75,153.52,472,154.38,473.22,153.59Z"/><path class="cls-12" d="M468.23,150.21c1.6-1.45,7.29,1.35,11.07,5.07,4.43,4.37,4.09,7.91,8,13.34a31.94,31.94,0,0,0,11.07,9.52c-.42,1-.83,2.06-1.25,3.1a22.34,22.34,0,0,1-13.54-3.31c-3.6-2.35-5.45-5.46-9-11.58S466.24,152,468.23,150.21Z"/><path class="cls-13" d="M503.09,235.64l-1.82-3.85a3.32,3.32,0,0,0-1.16-1.36l-.9-.6s-2.15-.05-2.48,1.3c-.07,1.71,3.26,5.54,5.37,7.06.35.25.85.59,1.15.42C503.76,238.31,503.4,236.74,503.09,235.64Z"/><path class="cls-14" d="M499.68,227.74a3.53,3.53,0,0,0,.46,3c.28.34,2.5,4,1.59,4.61-.41.26-3.24-3.25-3.52-3.78s-.41-.38-.42-1.7a6.89,6.89,0,0,0-.33-2Z"/><path class="cls-15" d="M502.89,214.63s2,2.4,1.68,5-3.84-1.21-4.33-2.51-1.07-3.15-1.07-3.15S501.64,212.46,502.89,214.63Z"/><path class="cls-16" d="M502.13,210.88s-.55,2.79.49,4.26c.52.74,1.22,1.36,1,2a1.1,1.1,0,0,1-1.1.64c-.85-.09-1.32-1.38-1.65-2.3a23.91,23.91,0,0,1-.76-4.25Z"/><path class="cls-17" d="M500.52,213.23l1.86-.67a20.85,20.85,0,0,0,1.74-10.21c-1-11.3-11.46-17.29-12.62-17.93-2.85,1.43-5.73,3.44-5.84,6-.13,3.19,4.22,4.88,8.3,9.54A30,30,0,0,1,500.52,213.23Z"/><path class="cls-18" d="M499.86,229a45.07,45.07,0,0,0,.93-18.23c-.89-5.66-2.7-17.19-10.39-21.48a29.34,29.34,0,0,1-7-4.39,24.72,24.72,0,0,1-4.94-6.09c-10.29-3-19.78-1.79-24,3.73a8.09,8.09,0,0,0-1.93,4.06c-.52,4.6,4,10.14,9.07,11.3,6.45,1.47,10.19-5.15,15.9-3,1.6.61,3,2.14,5.66,5.19a43,43,0,0,1,6.12,8.91c2.18,4.27,3.84,7.42,4.08,11.51a11.17,11.17,0,0,0,1.2,4.95,10.48,10.48,0,0,0,2.88,3.31Z"/><path class="cls-19" d="M452.55,186.63a8.09,8.09,0,0,1,1.93-4.06c4.19-5.52,13.68-6.74,24-3.73a24.72,24.72,0,0,0,4.94,6.09,29.34,29.34,0,0,0,7,4.39c4.69,2.62,7.2,7.94,8.64,13-2.14-3.31-4-4.19-5.39-4.21-2,0-2.93,1.71-5.35,1.47-2.58-.25-3.18-2.39-5.27-2.63a3.88,3.88,0,0,0-2.33.51,9.23,9.23,0,0,0-3.18-2.45c-5.71-2.2-9.45,4.42-15.9,3C456.55,196.77,452,191.23,452.55,186.63Z"/><path class="cls-20" d="M494.53,192.88a33.38,33.38,0,0,0-5.12.12c-10.27,1-13.1,6.09-21.59,7.33-2,.29-10.94,1.6-14.81-3.57-2.78-3.71-2.36-10.1.68-12.61,1.29-1.07,2.56-1,10.8-1,3.1,0,6.2,0,9.31.08,13.13.16,15.64-.75,18,1.43C493,185.71,494.58,187.89,494.53,192.88Z"/><path class="cls-21" d="M466.8,150.75s-10.36-3-14.93,2.14a9.14,9.14,0,0,0-2,4.61c-2.46,12.27,6.84,19.64,3.17,26.12-1.45,2.57-4,3.34-5.83,8-.31.78-1.42,3.61-.4,4.51s2.38-.88,5-.56c2.79.34,3.44,2.48,5.31,2.17,1.23-.2,1.75-1.25,3.55-3.85,2.61-3.76,3.91-5.65,4.85-6.31,3.68-2.6,6.53.79,10.74-1.79,1.52-.93,7.16-8.19,5.5-6.2h0c-4-4.92-4.87-9-5-11.81-.1-3.1.79-4.51,0-8.17a18.36,18.36,0,0,0-4.06-7.6C472.31,151.47,471.77,150.94,466.8,150.75Z"/><path class="cls-22" d="M463.47,144c.14.66.86,4.18-.58,5.08a7.56,7.56,0,0,1-2.11.54c-.79.14-1.45.23-1.91.29a4.74,4.74,0,0,0,.95,2.42c1.91,2.45,5.73,1.82,6.28,1.72a14.54,14.54,0,0,0,4.28-1.31,10.23,10.23,0,0,0,1.57-1.39,27.5,27.5,0,0,0-3.26-1.62,20.12,20.12,0,0,0-2.11-.52c-.11-.68-.21-1.36-.32-2Z"/><path class="cls-23" d="M463.41,145.78a3.5,3.5,0,0,0,2.76,3c2.25.41,3.94-5,2.79-6.42a3,3,0,0,0-2.15-.89,3.35,3.35,0,0,0-2.8,2.71c-.38-.41-.87-.53-1.11-.36s-.14.85-.1,1A1.82,1.82,0,0,0,463.41,145.78Z"/><path class="cls-24" d="M481.79,179.55q-.71-.88-1.29-1.74a20.88,20.88,0,0,0-5.59-1.07c-3.43-.17-5.3.64-7.64-.76-2.65-1.6-2.18-3.81-4.73-5s-4.6.17-7.18-.3c-1.57-.29-3.47-1.33-5.41-4.38,1.48,7.34,5.81,12.6,3.11,17.37-1.45,2.57-4,3.34-5.83,8-.31.78-1.42,3.61-.4,4.51s2.38-.88,5-.56c2.79.34,3.44,2.48,5.31,2.17,1.23-.2,1.75-1.25,3.55-3.85,2.61-3.76,3.91-5.65,4.85-6.31,3.68-2.6,6.53.79,10.74-1.79C477.81,184.82,483.45,177.56,481.79,179.55Z"/><path class="cls-25" d="M484.91,180.81,461.46,182a1,1,0,0,0-.79.46l-.65,1a.76.76,0,0,0,.68,1.16l24.84-.94Z"/><path class="cls-26" d="M509.31,167.75l-24.23.47a2,2,0,0,0-1.73,1L475,184l25.59-1a2,2,0,0,0,1.7-1L510,169A.82.82,0,0,0,509.31,167.75Z"/><path class="cls-27" d="M483.35,169.25a2,2,0,0,1,1.73-1h.53a3.8,3.8,0,0,0,.8,2.08c1.49,1.8,4,.69,5.82,2.6,2,2.09.16,4.59,2,6.54s5,.38,8.56,1.7l-.52.85a2,2,0,0,1-1.7,1L475,184Z"/><path class="cls-28" d="M463.37,180l.92-2.42c-3.38-.92-8-2.29-12.83-4-.75-.27-1.64-.6-1.93-1.39-.82-2.21,4.38-4.5,6.4-9.34,1.88-4.46.85-10.67-1.33-11.4-4.51-1.52-20.53,18.42-14.81,26.83C443,183.06,453,183.81,463.37,180Z"/><path class="cls-29" d="M464.29,177.61c2.11-1.12,4.65,0,4.81.11a6.21,6.21,0,0,1,1.83,1.31c.08.1,1,1.38.66,1.78s-1.31.06-2.55-.72a9.77,9.77,0,0,0-2.24-.05c-1.71.16-2.5.7-3.12.23a1.54,1.54,0,0,1-.45-1.6A1.92,1.92,0,0,1,464.29,177.61Z"/><g id="factory4"><rect class="cls-30" x="214.26" y="321.22" width="10.66" height="55.89"/><rect class="cls-31" x="215.92" y="323.03" width="2.07" height="2.13"/><rect class="cls-31" x="218.57" y="323.03" width="2.07" height="2.13"/><rect class="cls-31" x="215.92" y="326.65" width="2.07" height="2.13"/><rect class="cls-31" x="218.57" y="326.65" width="2.07" height="2.13"/><rect class="cls-31" x="215.92" y="330.28" width="2.07" height="2.13"/><rect class="cls-31" x="218.57" y="330.28" width="2.07" height="2.13"/><rect class="cls-31" x="215.92" y="333.9" width="2.07" height="2.13"/><rect class="cls-31" x="218.57" y="333.9" width="2.07" height="2.13"/><rect class="cls-31" x="215.92" y="337.52" width="2.07" height="2.13"/><rect class="cls-31" x="218.57" y="337.52" width="2.07" height="2.13"/><rect class="cls-31" x="215.92" y="341.15" width="2.07" height="2.13"/><rect class="cls-31" x="218.57" y="341.15" width="2.07" height="2.13"/><rect class="cls-31" x="215.92" y="344.77" width="2.07" height="2.13"/><rect class="cls-31" x="218.57" y="344.77" width="2.07" height="2.13"/><rect class="cls-31" x="215.92" y="348.39" width="2.07" height="2.13"/><rect class="cls-31" x="218.57" y="348.39" width="2.07" height="2.13"/><rect class="cls-31" x="215.92" y="352.02" width="2.07" height="2.13"/><rect class="cls-31" x="218.57" y="352.02" width="2.07" height="2.13"/><rect class="cls-31" x="215.92" y="355.64" width="2.07" height="2.13"/><rect class="cls-31" x="218.57" y="355.64" width="2.07" height="2.13"/><rect class="cls-31" x="215.92" y="359.26" width="2.07" height="2.13"/><rect class="cls-31" x="218.57" y="359.26" width="2.07" height="2.13"/><rect class="cls-31" x="215.92" y="362.89" width="2.07" height="2.13"/><rect class="cls-31" x="218.57" y="362.89" width="2.07" height="2.13"/><rect class="cls-31" x="215.92" y="366.51" width="2.07" height="2.13"/><rect class="cls-31" x="218.57" y="366.51" width="2.07" height="2.13"/><rect class="cls-31" x="215.92" y="370.14" width="2.07" height="2.13"/><rect class="cls-31" x="221.2" y="370.14" width="2.07" height="2.13" transform="translate(444.47 742.4) rotate(180)"/><rect class="cls-31" x="221.2" y="366.51" width="2.07" height="2.13" transform="translate(444.47 735.16) rotate(180)"/><rect class="cls-31" x="221.2" y="362.89" width="2.07" height="2.13" transform="translate(444.47 727.91) rotate(180)"/><rect class="cls-31" x="221.2" y="359.26" width="2.07" height="2.13" transform="translate(444.47 720.66) rotate(180)"/><rect class="cls-31" x="221.2" y="355.64" width="2.07" height="2.13" transform="translate(444.47 713.42) rotate(180)"/><rect class="cls-31" x="221.2" y="352.02" width="2.07" height="2.13" transform="translate(444.47 706.17) rotate(180)"/><rect class="cls-31" x="221.2" y="348.39" width="2.07" height="2.13" transform="translate(444.47 698.92) rotate(180)"/><rect class="cls-31" x="221.2" y="344.77" width="2.07" height="2.13" transform="translate(444.47 691.68) rotate(180)"/><rect class="cls-31" x="221.2" y="341.15" width="2.07" height="2.13" transform="translate(444.47 684.43) rotate(180)"/><rect class="cls-31" x="221.2" y="337.52" width="2.07" height="2.13" transform="translate(444.47 677.18) rotate(180)"/><rect class="cls-31" x="221.2" y="333.9" width="2.07" height="2.13" transform="translate(444.47 669.94) rotate(180)"/><rect class="cls-31" x="221.2" y="330.28" width="2.07" height="2.13" transform="translate(444.47 662.69) rotate(180)"/><rect class="cls-31" x="221.2" y="326.65" width="2.07" height="2.13" transform="translate(444.47 655.44) rotate(180)"/><rect class="cls-31" x="221.2" y="323.03" width="2.07" height="2.13" transform="translate(444.47 648.2) rotate(180)"/><rect class="cls-31" x="218.57" y="370.14" width="2.07" height="2.13"/><rect class="cls-32" x="224.93" y="321.22" width="8.41" height="55.89"/><rect class="cls-33" x="230.75" y="370.14" width="1.71" height="2.13" transform="translate(463.22 742.4) rotate(180)"/><rect class="cls-33" x="228.56" y="370.14" width="1.71" height="2.13" transform="translate(458.84 742.4) rotate(180)"/><rect class="cls-33" x="230.75" y="366.51" width="1.71" height="2.13" transform="translate(463.22 735.16) rotate(180)"/><rect class="cls-33" x="228.56" y="366.51" width="1.71" height="2.13" transform="translate(458.84 735.16) rotate(180)"/><rect class="cls-33" x="230.75" y="362.89" width="1.71" height="2.13" transform="translate(463.22 727.91) rotate(180)"/><rect class="cls-33" x="228.56" y="362.89" width="1.71" height="2.13" transform="translate(458.84 727.91) rotate(180)"/><rect class="cls-33" x="230.75" y="359.26" width="1.71" height="2.13" transform="translate(463.22 720.66) rotate(180)"/><rect class="cls-33" x="228.56" y="359.26" width="1.71" height="2.13" transform="translate(458.84 720.66) rotate(180)"/><rect class="cls-33" x="230.75" y="355.64" width="1.71" height="2.13" transform="translate(463.22 713.42) rotate(180)"/><rect class="cls-33" x="228.56" y="355.64" width="1.71" height="2.13" transform="translate(458.84 713.42) rotate(180)"/><rect class="cls-33" x="230.75" y="352.02" width="1.71" height="2.13" transform="translate(463.22 706.17) rotate(180)"/><rect class="cls-33" x="228.56" y="352.02" width="1.71" height="2.13" transform="translate(458.84 706.17) rotate(180)"/><rect class="cls-33" x="230.75" y="348.39" width="1.71" height="2.13" transform="translate(463.22 698.92) rotate(180)"/><rect class="cls-33" x="228.56" y="348.39" width="1.71" height="2.13" transform="translate(458.84 698.92) rotate(180)"/><rect class="cls-33" x="230.75" y="344.77" width="1.71" height="2.13" transform="translate(463.22 691.68) rotate(180)"/><rect class="cls-33" x="228.56" y="344.77" width="1.71" height="2.13" transform="translate(458.84 691.68) rotate(180)"/><rect class="cls-33" x="230.75" y="341.15" width="1.71" height="2.13" transform="translate(463.22 684.43) rotate(180)"/><rect class="cls-33" x="228.56" y="341.15" width="1.71" height="2.13" transform="translate(458.84 684.43) rotate(180)"/><rect class="cls-33" x="230.75" y="337.52" width="1.71" height="2.13" transform="translate(463.22 677.18) rotate(180)"/><rect class="cls-33" x="228.56" y="337.52" width="1.71" height="2.13" transform="translate(458.84 677.18) rotate(180)"/><rect class="cls-33" x="230.75" y="333.9" width="1.71" height="2.13" transform="translate(463.22 669.94) rotate(180)"/><rect class="cls-33" x="228.56" y="333.9" width="1.71" height="2.13" transform="translate(458.84 669.94) rotate(180)"/><rect class="cls-33" x="230.75" y="330.28" width="1.71" height="2.13" transform="translate(463.22 662.69) rotate(180)"/><rect class="cls-33" x="228.56" y="330.28" width="1.71" height="2.13" transform="translate(458.84 662.69) rotate(180)"/><rect class="cls-33" x="230.75" y="326.65" width="1.71" height="2.13" transform="translate(463.22 655.44) rotate(180)"/><rect class="cls-33" x="228.56" y="326.65" width="1.71" height="2.13" transform="translate(458.84 655.44) rotate(180)"/><rect class="cls-33" x="230.75" y="323.03" width="1.71" height="2.13" transform="translate(463.22 648.2) rotate(180)"/><rect class="cls-33" x="226.39" y="323.03" width="1.71" height="2.13"/><rect class="cls-33" x="226.39" y="326.65" width="1.71" height="2.13"/><rect class="cls-33" x="226.39" y="330.28" width="1.71" height="2.13"/><rect class="cls-33" x="226.39" y="333.9" width="1.71" height="2.13"/><rect class="cls-33" x="226.39" y="337.52" width="1.71" height="2.13"/><rect class="cls-33" x="226.39" y="341.15" width="1.71" height="2.13"/><rect class="cls-33" x="226.39" y="344.77" width="1.71" height="2.13"/><rect class="cls-33" x="226.39" y="348.39" width="1.71" height="2.13"/><rect class="cls-33" x="226.39" y="352.02" width="1.71" height="2.13"/><rect class="cls-33" x="226.39" y="355.64" width="1.71" height="2.13"/><rect class="cls-33" x="226.39" y="359.26" width="1.71" height="2.13"/><rect class="cls-33" x="226.39" y="362.89" width="1.71" height="2.13"/><rect class="cls-33" x="226.39" y="366.51" width="1.71" height="2.13"/><rect class="cls-33" x="226.39" y="370.14" width="1.71" height="2.13"/><rect class="cls-33" x="228.56" y="323.03" width="1.71" height="2.13" transform="translate(458.84 648.2) rotate(180)"/><rect class="cls-31" x="115.54" y="318.2" width="12.61" height="58.91"/><rect class="cls-33" x="115.23" y="316.91" width="12.92" height="1.29"/><rect class="cls-34" x="116.68" y="320.1" width="1.28" height="57.01"/><rect class="cls-34" x="118.94" y="320.1" width="1.28" height="57.01"/><rect class="cls-34" x="121.2" y="320.1" width="1.28" height="57.01"/><rect class="cls-34" x="123.47" y="320.1" width="1.28" height="57.01"/><rect class="cls-34" x="125.73" y="320.1" width="1.28" height="57.01"/><rect class="cls-31" x="116.68" y="321.73" width="1.28" height="2.55"/><rect class="cls-31" x="118.94" y="321.73" width="1.28" height="2.55"/><rect class="cls-31" x="121.2" y="321.73" width="1.28" height="2.55"/><rect class="cls-31" x="123.47" y="321.73" width="1.28" height="2.55"/><rect class="cls-31" x="125.73" y="321.73" width="1.28" height="2.55"/><rect class="cls-31" x="116.68" y="325.87" width="1.28" height="2.55"/><rect class="cls-31" x="118.94" y="325.87" width="1.28" height="2.55"/><rect class="cls-31" x="121.2" y="325.87" width="1.28" height="2.55"/><rect class="cls-31" x="123.47" y="325.87" width="1.28" height="2.55"/><rect class="cls-31" x="125.73" y="325.87" width="1.28" height="2.55"/><rect class="cls-31" x="116.68" y="330.01" width="1.28" height="2.55"/><rect class="cls-31" x="118.94" y="330.01" width="1.28" height="2.55"/><rect class="cls-31" x="121.2" y="330.01" width="1.28" height="2.55"/><rect class="cls-31" x="123.47" y="330.01" width="1.28" height="2.55"/><rect class="cls-31" x="125.73" y="330.01" width="1.28" height="2.55"/><rect class="cls-31" x="116.68" y="334.14" width="1.28" height="2.55"/><rect class="cls-31" x="118.94" y="334.14" width="1.28" height="2.55"/><rect class="cls-31" x="121.2" y="334.14" width="1.28" height="2.55"/><rect class="cls-31" x="123.47" y="334.14" width="1.28" height="2.55"/><rect class="cls-31" x="125.73" y="334.14" width="1.28" height="2.55"/><rect class="cls-31" x="116.68" y="338.28" width="1.28" height="2.55"/><rect class="cls-31" x="118.94" y="338.28" width="1.28" height="2.55"/><rect class="cls-31" x="121.2" y="338.28" width="1.28" height="2.55"/><rect class="cls-31" x="123.47" y="338.28" width="1.28" height="2.55"/><rect class="cls-31" x="125.73" y="338.28" width="1.28" height="2.55"/><rect class="cls-31" x="116.68" y="342.42" width="1.28" height="2.55"/><rect class="cls-31" x="118.94" y="342.42" width="1.28" height="2.55"/><rect class="cls-31" x="121.2" y="342.42" width="1.28" height="2.55"/><rect class="cls-31" x="123.47" y="342.42" width="1.28" height="2.55"/><rect class="cls-31" x="125.73" y="342.42" width="1.28" height="2.55"/><rect class="cls-31" x="116.68" y="346.56" width="1.28" height="2.55"/><rect class="cls-31" x="118.94" y="346.56" width="1.28" height="2.55"/><rect class="cls-31" x="121.2" y="346.56" width="1.28" height="2.55"/><rect class="cls-31" x="123.47" y="346.56" width="1.28" height="2.55"/><rect class="cls-31" x="125.73" y="346.56" width="1.28" height="2.55"/><rect class="cls-31" x="116.68" y="350.7" width="1.28" height="2.55"/><rect class="cls-31" x="118.94" y="350.7" width="1.28" height="2.55"/><rect class="cls-31" x="121.2" y="350.7" width="1.28" height="2.55"/><rect class="cls-31" x="123.47" y="350.7" width="1.28" height="2.55"/><rect class="cls-31" x="125.73" y="350.7" width="1.28" height="2.55"/><rect class="cls-31" x="116.68" y="354.83" width="1.28" height="2.55"/><rect class="cls-31" x="118.94" y="354.83" width="1.28" height="2.55"/><rect class="cls-31" x="121.2" y="354.83" width="1.28" height="2.55"/><rect class="cls-31" x="123.47" y="354.83" width="1.28" height="2.55"/><rect class="cls-31" x="125.73" y="354.83" width="1.28" height="2.55"/><rect class="cls-31" x="116.68" y="358.97" width="1.28" height="2.55"/><rect class="cls-31" x="118.94" y="358.97" width="1.28" height="2.55"/><rect class="cls-31" x="121.2" y="358.97" width="1.28" height="2.55"/><rect class="cls-31" x="123.47" y="358.97" width="1.28" height="2.55"/><rect class="cls-31" x="125.73" y="358.97" width="1.28" height="2.55"/><rect class="cls-31" x="116.68" y="363.11" width="1.28" height="2.55"/><rect class="cls-31" x="118.94" y="363.11" width="1.28" height="2.55"/><rect class="cls-31" x="121.2" y="363.11" width="1.28" height="2.55"/><rect class="cls-31" x="123.47" y="363.11" width="1.28" height="2.55"/><rect class="cls-31" x="125.73" y="363.11" width="1.28" height="2.55"/><rect class="cls-31" x="116.68" y="367.25" width="1.28" height="2.55"/><rect class="cls-31" x="118.94" y="367.25" width="1.28" height="2.55"/><rect class="cls-31" x="121.2" y="367.25" width="1.28" height="2.55"/><rect class="cls-31" x="123.47" y="367.25" width="1.28" height="2.55"/><rect class="cls-31" x="125.73" y="367.25" width="1.28" height="2.55"/><rect class="cls-31" x="116.68" y="371.38" width="1.28" height="2.55"/><rect class="cls-31" x="118.94" y="371.38" width="1.28" height="2.55"/><rect class="cls-31" x="121.2" y="371.38" width="1.28" height="2.55"/><rect class="cls-31" x="123.47" y="371.38" width="1.28" height="2.55"/><rect class="cls-31" x="125.73" y="371.38" width="1.28" height="2.55"/><rect class="cls-31" x="116.68" y="375.52" width="1.28" height="1.59"/><rect class="cls-31" x="118.94" y="375.52" width="1.28" height="1.59"/><rect class="cls-31" x="121.2" y="375.52" width="1.28" height="1.59"/><rect class="cls-31" x="123.47" y="375.52" width="1.28" height="1.59"/><rect class="cls-31" x="125.73" y="375.52" width="1.28" height="1.59"/><rect class="cls-30" x="128.15" y="318.2" width="8.1" height="58.91"/><rect class="cls-33" x="128.15" y="316.91" width="8.45" height="1.29"/><rect class="cls-33" x="129.29" y="320.1" width="1.28" height="57.01"/><rect class="cls-33" x="131.55" y="320.1" width="1.28" height="57.01"/><rect class="cls-33" x="133.82" y="320.1" width="1.28" height="57.01"/><rect class="cls-30" x="129.29" y="321.73" width="1.28" height="2.55"/><rect class="cls-30" x="131.55" y="321.73" width="1.28" height="2.55"/><rect class="cls-30" x="133.82" y="321.73" width="1.28" height="2.55"/><rect class="cls-30" x="129.29" y="325.87" width="1.28" height="2.55"/><rect class="cls-30" x="131.55" y="325.87" width="1.28" height="2.55"/><rect class="cls-30" x="133.82" y="325.87" width="1.28" height="2.55"/><rect class="cls-30" x="129.29" y="330.01" width="1.28" height="2.55"/><rect class="cls-30" x="131.55" y="330.01" width="1.28" height="2.55"/><rect class="cls-30" x="133.82" y="330.01" width="1.28" height="2.55"/><rect class="cls-30" x="129.29" y="334.14" width="1.28" height="2.55"/><rect class="cls-30" x="131.55" y="334.14" width="1.28" height="2.55"/><rect class="cls-30" x="133.82" y="334.14" width="1.28" height="2.55"/><rect class="cls-30" x="129.29" y="338.28" width="1.28" height="2.55"/><rect class="cls-30" x="131.55" y="338.28" width="1.28" height="2.55"/><rect class="cls-30" x="133.82" y="338.28" width="1.28" height="2.55"/><rect class="cls-30" x="129.29" y="342.42" width="1.28" height="2.55"/><rect class="cls-30" x="131.55" y="342.42" width="1.28" height="2.55"/><rect class="cls-30" x="133.82" y="342.42" width="1.28" height="2.55"/><rect class="cls-30" x="129.29" y="346.56" width="1.28" height="2.55"/><rect class="cls-30" x="131.55" y="346.56" width="1.28" height="2.55"/><rect class="cls-30" x="133.82" y="346.56" width="1.28" height="2.55"/><rect class="cls-30" x="129.29" y="350.7" width="1.28" height="2.55"/><rect class="cls-30" x="131.55" y="350.7" width="1.28" height="2.55"/><rect class="cls-30" x="133.82" y="350.7" width="1.28" height="2.55"/><rect class="cls-30" x="129.29" y="354.83" width="1.28" height="2.55"/><rect class="cls-30" x="131.55" y="354.83" width="1.28" height="2.55"/><rect class="cls-30" x="133.82" y="354.83" width="1.28" height="2.55"/><rect class="cls-30" x="129.29" y="358.97" width="1.28" height="2.55"/><rect class="cls-30" x="131.55" y="358.97" width="1.28" height="2.55"/><rect class="cls-30" x="133.82" y="358.97" width="1.28" height="2.55"/><rect class="cls-30" x="129.29" y="363.11" width="1.28" height="2.55"/><rect class="cls-30" x="131.55" y="363.11" width="1.28" height="2.55"/><rect class="cls-30" x="133.82" y="363.11" width="1.28" height="2.55"/><rect class="cls-30" x="129.29" y="367.25" width="1.28" height="2.55"/><rect class="cls-30" x="131.55" y="367.25" width="1.28" height="2.55"/><rect class="cls-30" x="133.82" y="367.25" width="1.28" height="2.55"/><rect class="cls-30" x="129.29" y="371.38" width="1.28" height="2.55"/><rect class="cls-30" x="131.55" y="371.38" width="1.28" height="2.55"/><rect class="cls-30" x="133.82" y="371.38" width="1.28" height="2.55"/><rect class="cls-30" x="129.29" y="375.52" width="1.28" height="1.59"/><rect class="cls-30" x="131.55" y="375.52" width="1.28" height="1.59"/><rect class="cls-30" x="133.82" y="375.52" width="1.28" height="1.59"/><rect class="cls-31" x="133.45" y="335.91" width="13.89" height="41.2"/><rect class="cls-33" x="135.43" y="332.41" width="11.91" height="3.49"/><rect class="cls-30" x="134.98" y="337.73" width="10.84" height="39.38"/><rect class="cls-34" x="134.98" y="341.49" width="10.84" height="0.93"/><rect class="cls-34" x="134.98" y="345.34" width="10.84" height="0.93"/><rect class="cls-34" x="134.98" y="349.2" width="10.84" height="0.93"/><rect class="cls-34" x="134.98" y="353.05" width="10.84" height="0.93"/><rect class="cls-34" x="134.98" y="356.91" width="10.84" height="0.93"/><rect class="cls-34" x="134.98" y="360.76" width="10.84" height="0.93"/><rect class="cls-34" x="134.98" y="364.61" width="10.84" height="0.93"/><rect class="cls-34" x="134.98" y="368.47" width="10.84" height="0.93"/><rect class="cls-34" x="134.98" y="372.32" width="10.84" height="0.93"/><rect class="cls-34" x="134.98" y="376.18" width="10.84" height="0.93"/><rect class="cls-30" x="147.35" y="335.91" width="8.7" height="41.2"/><rect class="cls-32" x="147.35" y="332.41" width="7.39" height="3.49"/><rect class="cls-33" x="148.54" y="337.73" width="6.69" height="39.38"/><rect class="cls-34" x="148.54" y="341.49" width="6.69" height="0.93"/><rect class="cls-34" x="148.54" y="345.34" width="6.69" height="0.93"/><rect class="cls-34" x="148.54" y="349.2" width="6.69" height="0.93"/><rect class="cls-34" x="148.54" y="353.05" width="6.69" height="0.93"/><rect class="cls-34" x="148.54" y="356.91" width="6.69" height="0.93"/><rect class="cls-34" x="148.54" y="360.76" width="6.69" height="0.93"/><rect class="cls-34" x="148.54" y="364.61" width="6.69" height="0.93"/><rect class="cls-34" x="148.54" y="368.47" width="6.69" height="0.93"/><rect class="cls-34" x="148.54" y="372.32" width="6.69" height="0.93"/><rect class="cls-34" x="148.54" y="376.18" width="6.69" height="0.93"/><rect class="cls-30" x="252.43" y="330.28" width="6.71" height="7.92"/><rect class="cls-33" x="259.14" y="330.28" width="4.25" height="8.21"/><rect class="cls-30" x="259.46" y="333.78" width="4.22" height="4.72"/><rect class="cls-33" x="263.68" y="333.78" width="2.63" height="4.72"/><rect class="cls-31" x="249.86" y="337.69" width="10.85" height="39.42"/><rect class="cls-34" x="251.1" y="339.38" width="3.41" height="1.39"/><rect class="cls-34" x="255.46" y="339.38" width="3.41" height="1.39"/><rect class="cls-34" x="251.1" y="341.75" width="3.41" height="1.39"/><rect class="cls-34" x="255.46" y="341.75" width="3.41" height="1.39"/><rect class="cls-34" x="251.1" y="344.11" width="3.41" height="1.39"/><rect class="cls-34" x="255.46" y="344.11" width="3.41" height="1.39"/><rect class="cls-34" x="251.1" y="346.48" width="3.41" height="1.39"/><rect class="cls-34" x="255.46" y="346.48" width="3.41" height="1.39"/><rect class="cls-34" x="251.1" y="348.85" width="3.41" height="1.39"/><rect class="cls-34" x="255.46" y="348.85" width="3.41" height="1.39"/><rect class="cls-34" x="251.1" y="351.21" width="3.41" height="1.39"/><rect class="cls-34" x="255.46" y="351.21" width="3.41" height="1.39"/><rect class="cls-34" x="251.1" y="353.58" width="3.41" height="1.39"/><rect class="cls-34" x="255.46" y="353.58" width="3.41" height="1.39"/><rect class="cls-34" x="251.1" y="355.95" width="3.41" height="1.39"/><rect class="cls-34" x="255.46" y="355.95" width="3.41" height="1.39"/><rect class="cls-34" x="251.1" y="358.31" width="3.41" height="1.39"/><rect class="cls-34" x="255.46" y="358.31" width="3.41" height="1.39"/><rect class="cls-34" x="251.1" y="360.68" width="3.41" height="1.39"/><rect class="cls-34" x="255.46" y="360.68" width="3.41" height="1.39"/><rect class="cls-34" x="251.1" y="363.04" width="3.41" height="1.39"/><rect class="cls-34" x="255.46" y="363.04" width="3.41" height="1.39"/><rect class="cls-34" x="251.1" y="365.41" width="3.41" height="1.39"/><rect class="cls-34" x="255.46" y="365.41" width="3.41" height="1.39"/><rect class="cls-34" x="251.1" y="367.78" width="3.41" height="1.39"/><rect class="cls-34" x="255.46" y="367.78" width="3.41" height="1.39"/><rect class="cls-34" x="251.1" y="370.14" width="3.41" height="1.39"/><rect class="cls-34" x="255.46" y="370.14" width="3.41" height="1.39"/><rect class="cls-33" x="260.71" y="337.69" width="8.79" height="39.42"/><rect class="cls-31" x="265.81" y="370.14" width="2.8" height="1.39" transform="translate(534.43 741.68) rotate(180)"/><rect class="cls-31" x="262.23" y="370.14" width="2.8" height="1.39" transform="translate(527.26 741.68) rotate(180)"/><rect class="cls-31" x="265.81" y="367.78" width="2.8" height="1.39" transform="translate(534.43 736.95) rotate(180)"/><rect class="cls-31" x="262.23" y="367.78" width="2.8" height="1.39" transform="translate(527.26 736.95) rotate(180)"/><rect class="cls-31" x="265.81" y="365.41" width="2.8" height="1.39" transform="translate(534.43 732.21) rotate(180)"/><rect class="cls-31" x="262.23" y="365.41" width="2.8" height="1.39" transform="translate(527.26 732.21) rotate(180)"/><rect class="cls-31" x="265.81" y="363.04" width="2.8" height="1.39" transform="translate(534.43 727.48) rotate(180)"/><rect class="cls-31" x="262.23" y="363.04" width="2.8" height="1.39" transform="translate(527.26 727.48) rotate(180)"/><rect class="cls-31" x="265.81" y="360.68" width="2.8" height="1.39" transform="translate(534.43 722.75) rotate(180)"/><rect class="cls-31" x="262.23" y="360.68" width="2.8" height="1.39" transform="translate(527.26 722.75) rotate(180)"/><rect class="cls-31" x="265.81" y="358.31" width="2.8" height="1.39" transform="translate(534.43 718.02) rotate(180)"/><rect class="cls-31" x="262.23" y="358.31" width="2.8" height="1.39" transform="translate(527.26 718.02) rotate(180)"/><rect class="cls-31" x="265.81" y="355.95" width="2.8" height="1.39" transform="translate(534.43 713.28) rotate(180)"/><rect class="cls-31" x="262.23" y="355.95" width="2.8" height="1.39" transform="translate(527.26 713.28) rotate(180)"/><rect class="cls-31" x="265.81" y="353.58" width="2.8" height="1.39" transform="translate(534.43 708.55) rotate(180)"/><rect class="cls-31" x="262.23" y="353.58" width="2.8" height="1.39" transform="translate(527.26 708.55) rotate(180)"/><rect class="cls-31" x="265.81" y="351.21" width="2.8" height="1.39" transform="translate(534.43 703.82) rotate(180)"/><rect class="cls-31" x="262.23" y="351.21" width="2.8" height="1.39" transform="translate(527.26 703.82) rotate(180)"/><rect class="cls-31" x="265.81" y="348.85" width="2.8" height="1.39" transform="translate(534.43 699.09) rotate(180)"/><rect class="cls-31" x="262.23" y="348.85" width="2.8" height="1.39" transform="translate(527.26 699.09) rotate(180)"/><rect class="cls-31" x="265.81" y="346.48" width="2.8" height="1.39" transform="translate(534.43 694.35) rotate(180)"/><rect class="cls-31" x="262.23" y="346.48" width="2.8" height="1.39" transform="translate(527.26 694.35) rotate(180)"/><rect class="cls-31" x="265.81" y="344.11" width="2.8" height="1.39" transform="translate(534.43 689.62) rotate(180)"/><rect class="cls-31" x="262.23" y="344.11" width="2.8" height="1.39" transform="translate(527.26 689.62) rotate(180)"/><rect class="cls-31" x="265.81" y="341.75" width="2.8" height="1.39" transform="translate(534.43 684.89) rotate(180)"/><rect class="cls-31" x="262.23" y="341.75" width="2.8" height="1.39" transform="translate(527.26 684.89) rotate(180)"/><rect class="cls-31" x="265.81" y="339.38" width="2.8" height="1.39" transform="translate(534.43 680.16) rotate(180)"/><rect class="cls-31" x="262.23" y="339.38" width="2.8" height="1.39" transform="translate(527.26 680.16) rotate(180)"/><rect class="cls-33" x="102.57" y="351.42" width="12.79" height="25.69"/><rect class="cls-30" x="104.58" y="353.64" width="2.26" height="1.57"/><rect class="cls-30" x="104.58" y="357.01" width="2.26" height="1.57"/><rect class="cls-30" x="104.58" y="360.37" width="2.26" height="1.57"/><rect class="cls-30" x="104.58" y="363.73" width="2.26" height="1.57"/><rect class="cls-30" x="104.58" y="367.09" width="2.26" height="1.57"/><rect class="cls-30" x="104.58" y="370.45" width="2.26" height="1.57"/><rect class="cls-30" x="104.58" y="373.81" width="2.26" height="1.57"/><rect class="cls-30" x="107.84" y="353.64" width="2.26" height="1.57"/><rect class="cls-30" x="107.84" y="357.01" width="2.26" height="1.57"/><rect class="cls-30" x="107.84" y="360.37" width="2.26" height="1.57"/><rect class="cls-30" x="107.84" y="363.73" width="2.26" height="1.57"/><rect class="cls-30" x="107.84" y="367.09" width="2.26" height="1.57"/><rect class="cls-30" x="107.84" y="370.45" width="2.26" height="1.57"/><rect class="cls-30" x="107.84" y="373.81" width="2.26" height="1.57"/><rect class="cls-30" x="111.09" y="353.64" width="2.26" height="1.57"/><rect class="cls-30" x="111.09" y="357.01" width="2.26" height="1.57"/><rect class="cls-30" x="111.09" y="360.37" width="2.26" height="1.57"/><rect class="cls-30" x="111.09" y="363.73" width="2.26" height="1.57"/><rect class="cls-30" x="111.09" y="367.09" width="2.26" height="1.57"/><rect class="cls-30" x="111.09" y="370.45" width="2.26" height="1.57"/><rect class="cls-30" x="111.09" y="373.81" width="2.26" height="1.57"/><rect class="cls-30" x="106.85" y="348.74" width="8.52" height="2.68"/><rect class="cls-31" x="109.96" y="347.09" width="5.4" height="1.66"/><rect class="cls-32" x="115.36" y="351.42" width="8.98" height="25.69"/><rect class="cls-33" x="121.58" y="373.56" width="1.84" height="1.57" transform="translate(245 748.7) rotate(180)"/><rect class="cls-33" x="121.58" y="370.2" width="1.84" height="1.57" transform="translate(245 741.98) rotate(180)"/><rect class="cls-33" x="121.58" y="366.84" width="1.84" height="1.57" transform="translate(245 735.25) rotate(180)"/><rect class="cls-33" x="121.58" y="363.48" width="1.84" height="1.57" transform="translate(245 728.53) rotate(180)"/><rect class="cls-33" x="121.58" y="360.12" width="1.84" height="1.57" transform="translate(245 721.81) rotate(180)"/><rect class="cls-33" x="121.58" y="356.76" width="1.84" height="1.57" transform="translate(245 715.08) rotate(180)"/><rect class="cls-33" x="121.58" y="353.39" width="1.84" height="1.57" transform="translate(245 708.36) rotate(180)"/><rect class="cls-33" x="118.93" y="373.56" width="1.84" height="1.57" transform="translate(239.7 748.7) rotate(180)"/><rect class="cls-33" x="118.93" y="370.2" width="1.84" height="1.57" transform="translate(239.7 741.98) rotate(180)"/><rect class="cls-33" x="118.93" y="366.84" width="1.84" height="1.57" transform="translate(239.7 735.25) rotate(180)"/><rect class="cls-33" x="118.93" y="363.48" width="1.84" height="1.57" transform="translate(239.7 728.53) rotate(180)"/><rect class="cls-33" x="118.93" y="360.12" width="1.84" height="1.57" transform="translate(239.7 721.81) rotate(180)"/><rect class="cls-33" x="118.93" y="356.76" width="1.84" height="1.57" transform="translate(239.7 715.08) rotate(180)"/><rect class="cls-33" x="118.93" y="353.39" width="1.84" height="1.57" transform="translate(239.7 708.36) rotate(180)"/><rect class="cls-33" x="116.28" y="373.56" width="1.84" height="1.57" transform="translate(234.41 748.7) rotate(180)"/><rect class="cls-33" x="116.28" y="370.2" width="1.84" height="1.57" transform="translate(234.41 741.98) rotate(180)"/><rect class="cls-33" x="116.28" y="366.84" width="1.84" height="1.57" transform="translate(234.41 735.25) rotate(180)"/><rect class="cls-33" x="116.28" y="363.48" width="1.84" height="1.57" transform="translate(234.41 728.53) rotate(180)"/><rect class="cls-33" x="116.28" y="360.12" width="1.84" height="1.57" transform="translate(234.41 721.81) rotate(180)"/><rect class="cls-33" x="116.28" y="356.76" width="1.84" height="1.57" transform="translate(234.41 715.08) rotate(180)"/><rect class="cls-33" x="116.28" y="353.39" width="1.84" height="1.57" transform="translate(234.41 708.36) rotate(180)"/><rect class="cls-33" x="115.36" y="348.74" width="7.62" height="2.68"/><rect class="cls-30" x="115.36" y="347.09" width="4.13" height="1.66"/><rect class="cls-30" x="234.43" y="355.3" width="9.71" height="21.81"/><rect class="cls-33" x="235.95" y="357.19" width="1.72" height="1.34"/><rect class="cls-33" x="235.95" y="360.04" width="1.72" height="1.34"/><rect class="cls-33" x="235.95" y="362.89" width="1.72" height="1.34"/><rect class="cls-33" x="235.95" y="365.75" width="1.72" height="1.34"/><rect class="cls-33" x="235.95" y="368.6" width="1.72" height="1.34"/><rect class="cls-33" x="235.95" y="371.46" width="1.72" height="1.34"/><rect class="cls-33" x="235.95" y="374.31" width="1.72" height="1.34"/><rect class="cls-33" x="238.42" y="357.19" width="1.72" height="1.34"/><rect class="cls-33" x="238.42" y="360.04" width="1.72" height="1.34"/><rect class="cls-33" x="238.42" y="362.89" width="1.72" height="1.34"/><rect class="cls-33" x="238.42" y="365.75" width="1.72" height="1.34"/><rect class="cls-33" x="238.42" y="368.6" width="1.72" height="1.34"/><rect class="cls-33" x="238.42" y="371.46" width="1.72" height="1.34"/><rect class="cls-33" x="238.42" y="374.31" width="1.72" height="1.34"/><rect class="cls-33" x="240.89" y="357.19" width="1.72" height="1.34"/><rect class="cls-33" x="240.89" y="360.04" width="1.72" height="1.34"/><rect class="cls-33" x="240.89" y="362.89" width="1.72" height="1.34"/><rect class="cls-33" x="240.89" y="365.75" width="1.72" height="1.34"/><rect class="cls-33" x="240.89" y="368.6" width="1.72" height="1.34"/><rect class="cls-33" x="240.89" y="371.46" width="1.72" height="1.34"/><rect class="cls-33" x="240.89" y="374.31" width="1.72" height="1.34"/><rect class="cls-32" x="244.14" y="355.3" width="6.81" height="21.81"/><rect class="cls-33" x="248.85" y="374.1" width="1.4" height="1.34" transform="translate(499.1 749.53) rotate(180)"/><rect class="cls-33" x="248.85" y="371.24" width="1.4" height="1.34" transform="translate(499.1 743.82) rotate(180)"/><rect class="cls-33" x="248.85" y="368.39" width="1.4" height="1.34" transform="translate(499.1 738.12) rotate(180)"/><rect class="cls-33" x="248.85" y="365.54" width="1.4" height="1.34" transform="translate(499.1 732.41) rotate(180)"/><rect class="cls-33" x="248.85" y="362.68" width="1.4" height="1.34" transform="translate(499.1 726.7) rotate(180)"/><rect class="cls-33" x="248.85" y="359.83" width="1.4" height="1.34" transform="translate(499.1 720.99) rotate(180)"/><rect class="cls-33" x="248.85" y="356.97" width="1.4" height="1.34" transform="translate(499.1 715.28) rotate(180)"/><rect class="cls-33" x="246.84" y="374.1" width="1.4" height="1.34" transform="translate(495.08 749.53) rotate(180)"/><rect class="cls-33" x="246.84" y="371.24" width="1.4" height="1.34" transform="translate(495.08 743.82) rotate(180)"/><rect class="cls-33" x="246.84" y="368.39" width="1.4" height="1.34" transform="translate(495.08 738.12) rotate(180)"/><rect class="cls-33" x="246.84" y="365.54" width="1.4" height="1.34" transform="translate(495.08 732.41) rotate(180)"/><rect class="cls-33" x="246.84" y="362.68" width="1.4" height="1.34" transform="translate(495.08 726.7) rotate(180)"/><rect class="cls-33" x="246.84" y="359.83" width="1.4" height="1.34" transform="translate(495.08 720.99) rotate(180)"/><rect class="cls-33" x="246.84" y="356.97" width="1.4" height="1.34" transform="translate(495.08 715.28) rotate(180)"/><rect class="cls-33" x="244.83" y="374.1" width="1.4" height="1.34" transform="translate(491.06 749.53) rotate(180)"/><rect class="cls-33" x="244.83" y="371.24" width="1.4" height="1.34" transform="translate(491.06 743.82) rotate(180)"/><rect class="cls-33" x="244.83" y="368.39" width="1.4" height="1.34" transform="translate(491.06 738.12) rotate(180)"/><rect class="cls-33" x="244.83" y="365.54" width="1.4" height="1.34" transform="translate(491.06 732.41) rotate(180)"/><rect class="cls-33" x="244.83" y="362.68" width="1.4" height="1.34" transform="translate(491.06 726.7) rotate(180)"/><rect class="cls-33" x="244.83" y="359.83" width="1.4" height="1.34" transform="translate(491.06 720.99) rotate(180)"/><rect class="cls-33" x="244.83" y="356.97" width="1.4" height="1.34" transform="translate(491.06 715.28) rotate(180)"/></g><g id="factory1"><rect class="cls-35" x="195.89" y="378.41" width="69.73" height="43.69"/><rect class="cls-36" x="195.89" y="378.41" width="69.73" height="1.42"/><rect class="cls-37" x="196.77" y="400.26" width="1.87" height="21.85" transform="translate(395.41 822.36) rotate(180)"/><g class="cls-38"><rect class="cls-37" x="196.77" y="400.26" width="1.87" height="21.85" transform="translate(395.41 822.36) rotate(180)"/></g><rect class="cls-39" x="198.64" y="400.26" width="0.93" height="21.85" transform="translate(398.22 822.36) rotate(180)"/><g class="cls-40"><rect class="cls-39" x="198.64" y="400.26" width="0.93" height="21.85" transform="translate(398.22 822.36) rotate(180)"/></g><rect class="cls-37" x="209.68" y="400.26" width="1.87" height="21.85" transform="translate(421.23 822.36) rotate(180)"/><g class="cls-38"><rect class="cls-37" x="209.68" y="400.26" width="1.87" height="21.85" transform="translate(421.23 822.36) rotate(180)"/></g><rect class="cls-39" x="211.55" y="400.26" width="0.93" height="21.85" transform="translate(424.03 822.36) rotate(180)"/><g class="cls-40"><rect class="cls-39" x="211.55" y="400.26" width="0.93" height="21.85" transform="translate(424.03 822.36) rotate(180)"/></g><rect class="cls-37" x="222.59" y="400.26" width="1.87" height="21.85" transform="translate(447.04 822.36) rotate(180)"/><rect class="cls-37" x="222.59" y="400.26" width="1.87" height="21.85" transform="translate(447.04 822.36) rotate(180)"/><rect class="cls-39" x="224.45" y="400.26" width="0.93" height="21.85" transform="translate(449.84 822.36) rotate(180)"/><g class="cls-40"><rect class="cls-39" x="224.45" y="400.26" width="0.93" height="21.85" transform="translate(449.84 822.36) rotate(180)"/></g><rect class="cls-37" x="235.49" y="400.26" width="1.87" height="21.85" transform="translate(472.85 822.36) rotate(180)"/><g class="cls-38"><rect class="cls-37" x="235.49" y="400.26" width="1.87" height="21.85" transform="translate(472.85 822.36) rotate(180)"/></g><rect class="cls-39" x="237.36" y="400.26" width="0.93" height="21.85" transform="translate(475.65 822.36) rotate(180)"/><g class="cls-40"><rect class="cls-39" x="237.36" y="400.26" width="0.93" height="21.85" transform="translate(475.65 822.36) rotate(180)"/></g><rect class="cls-37" x="248.4" y="400.26" width="1.87" height="21.85" transform="translate(498.66 822.36) rotate(180)"/><g class="cls-38"><rect class="cls-37" x="248.4" y="400.26" width="1.87" height="21.85" transform="translate(498.66 822.36) rotate(180)"/></g><rect class="cls-39" x="250.26" y="400.26" width="0.93" height="21.85" transform="translate(501.46 822.36) rotate(180)"/><g class="cls-40"><rect class="cls-39" x="250.26" y="400.26" width="0.93" height="21.85" transform="translate(501.46 822.36) rotate(180)"/></g><g class="cls-40"><rect class="cls-37" x="261.3" y="400.26" width="1.87" height="21.85" transform="translate(524.47 822.36) rotate(180)"/><g class="cls-38"><rect class="cls-37" x="261.3" y="400.26" width="1.87" height="21.85" transform="translate(524.47 822.36) rotate(180)"/></g></g><rect class="cls-39" x="263.17" y="400.26" width="0.93" height="21.85" transform="translate(527.27 822.36) rotate(180)"/><g class="cls-40"><rect class="cls-39" x="263.17" y="400.26" width="0.93" height="21.85" transform="translate(527.27 822.36) rotate(180)"/></g><rect class="cls-39" x="198.76" y="396.85" width="1.63" height="0.69"/><rect class="cls-39" x="197.85" y="397.71" width="1.63" height="0.69"/><rect class="cls-39" x="199.67" y="397.71" width="1.63" height="0.69"/><rect class="cls-39" x="234.64" y="382.06" width="1.63" height="0.69"/><rect class="cls-39" x="255.02" y="400.57" width="1.63" height="0.69"/><rect class="cls-39" x="254.11" y="401.44" width="1.63" height="0.69"/><rect class="cls-39" x="255.93" y="401.44" width="1.63" height="0.69"/><rect class="cls-39" x="219.73" y="418.72" width="1.63" height="0.69"/><rect class="cls-39" x="211.61" y="388.9" width="1.63" height="0.69"/><rect class="cls-39" x="243.07" y="408.92" width="1.63" height="0.69"/><rect class="cls-39" x="228.49" y="402.67" width="1.63" height="0.69"/><rect class="cls-39" x="229.4" y="403.54" width="1.63" height="0.69"/><rect class="cls-39" x="213.04" y="411.61" width="1.63" height="0.69" transform="translate(427.7 823.9) rotate(180)"/><rect class="cls-39" x="213.94" y="410.74" width="1.63" height="0.69" transform="translate(429.51 822.17) rotate(180)"/><rect class="cls-39" x="258.69" y="419.9" width="1.63" height="0.69" transform="translate(519.01 840.48) rotate(180)"/><rect class="cls-39" x="259.6" y="419.03" width="1.63" height="0.69" transform="translate(520.83 838.75) rotate(180)"/><polygon class="cls-41" points="226.09 383.31 225.35 383.9 225.35 383.31 226.09 383.31"/><rect class="cls-42" x="212.48" y="383.31" width="10.1" height="11.83"/><polygon class="cls-41" points="222.55 383.31 212.48 391.44 212.48 390.24 221.08 383.31 222.55 383.31"/><polygon class="cls-41" points="212.48 393.7 222.59 385.54 222.59 386.14 212.48 394.29 212.48 393.7"/><polygon class="cls-41" points="213.97 383.31 212.48 384.51 212.48 383.91 213.23 383.31 213.97 383.31"/><rect class="cls-42" x="251.1" y="383.31" width="10.1" height="11.83"/><polygon class="cls-41" points="254.88 383.31 251.09 386.37 251.09 383.98 251.93 383.31 254.88 383.31"/><polygon class="cls-41" points="261.2 385.24 261.2 386.44 251.09 394.6 251.09 393.4 261.2 385.24"/><polygon class="cls-41" points="261.2 390.39 261.2 390.99 256.06 395.14 255.32 395.14 261.2 390.39"/><rect class="cls-42" x="199.58" y="383.31" width="10.1" height="11.83"/><polygon class="cls-41" points="203.37 383.31 199.57 386.37 199.57 383.98 200.41 383.31 203.37 383.31"/><polygon class="cls-41" points="209.68 385.24 209.68 386.44 199.57 394.6 199.57 393.4 209.68 385.24"/><polygon class="cls-41" points="209.68 390.39 209.68 390.99 204.54 395.14 203.8 395.14 209.68 390.39"/><rect class="cls-42" x="225.35" y="383.31" width="10.1" height="11.83"/><polygon class="cls-41" points="227.09 395.14 235.46 388.38 235.46 390.76 230.04 395.14 227.09 395.14"/><polygon class="cls-41" points="225.35 394.06 235.46 385.9 235.46 386.5 225.35 394.66 225.35 394.06"/><rect class="cls-42" x="238.22" y="383.31" width="10.1" height="11.83"/><polygon class="cls-41" points="238.23 394.37 248.33 386.22 248.33 388.6 240.23 395.14 238.23 395.14 238.23 394.37"/><polygon class="cls-41" points="244.69 383.31 238.23 388.52 238.23 386.14 241.74 383.31 244.69 383.31"/><polygon class="cls-41" points="239.41 383.31 238.23 384.26 238.23 383.66 238.67 383.31 239.41 383.31"/><polygon class="cls-37" points="286.43 422.11 265.62 422.11 265.62 378.41 286.43 370.26 286.43 422.11"/><polygon class="cls-43" points="286.43 422.11 265.62 422.11 265.62 378.41 286.43 370.26 286.43 422.11"/><polygon class="cls-37" points="265.62 378.41 265.62 379.83 286.43 373.88 286.43 370.26 265.62 378.41"/><polygon class="cls-37" points="307.23 422.11 286.43 422.11 286.43 378.41 307.23 370.26 307.23 422.11"/><polygon class="cls-39" points="286.43 378.41 286.43 379.83 307.23 373.88 307.23 370.26 286.43 378.41"/><polygon class="cls-37" points="328.04 422.11 307.23 422.11 307.23 378.41 328.04 370.26 328.04 422.11"/><polygon class="cls-39" points="307.23 378.41 307.23 379.83 328.04 373.88 328.04 370.26 307.23 378.41"/><path class="cls-39" d="M275.23,422.11h-2.3V388.19a.55.55,0,0,0-.55-.55H271v-2.3h1.42a2.86,2.86,0,0,1,2.85,2.85Z"/><path class="cls-44" d="M275.23,422.11h-2.3V388.19a.55.55,0,0,0-.55-.55H271v-2.3h1.42a2.86,2.86,0,0,1,2.85,2.85Z"/><g class="cls-45"><path class="cls-39" d="M271.93,387.64c0-.39,0-.77,0-1.15s0-.77,0-1.15c0,.38,0,.76,0,1.15S272,387.25,271.93,387.64Z"/><path class="cls-39" d="M272.93,389.72c.38,0,.77,0,1.15,0s.76,0,1.15,0c-.39,0-.77,0-1.15,0S273.31,389.75,272.93,389.72Z"/><path class="cls-39" d="M272.93,390.83c.38,0,.77,0,1.15,0s.76,0,1.15,0a16.55,16.55,0,0,1-2.3,0Z"/><path class="cls-39" d="M272.93,392c.38,0,.77,0,1.15,0s.76,0,1.15,0c-.39,0-.77,0-1.15,0S273.31,392,272.93,392Z"/><path class="cls-39" d="M272.93,393.06c.38,0,.77,0,1.15,0s.76,0,1.15,0a16.55,16.55,0,0,1-2.3,0Z"/><path class="cls-39" d="M272.93,394.18a16.55,16.55,0,0,1,2.3,0c-.39,0-.77,0-1.15,0S273.31,394.21,272.93,394.18Z"/><path class="cls-39" d="M272.93,395.29c.38,0,.77,0,1.15,0s.76,0,1.15,0c-.39,0-.77,0-1.15,0S273.31,395.32,272.93,395.29Z"/><path class="cls-39" d="M272.93,396.41a16.55,16.55,0,0,1,2.3,0c-.39,0-.77,0-1.15,0S273.31,396.44,272.93,396.41Z"/><path class="cls-39" d="M272.93,397.52c.38,0,.77,0,1.15,0s.76,0,1.15,0c-.39,0-.77,0-1.15,0S273.31,397.55,272.93,397.52Z"/><path class="cls-39" d="M272.93,398.64a16.55,16.55,0,0,1,2.3,0c-.39,0-.77,0-1.15,0S273.31,398.67,272.93,398.64Z"/><path class="cls-39" d="M272.93,399.75c.38,0,.77,0,1.15,0s.76,0,1.15,0c-.39,0-.77,0-1.15,0S273.31,399.78,272.93,399.75Z"/><path class="cls-39" d="M272.93,400.86c.38,0,.77,0,1.15,0s.76,0,1.15,0a16.55,16.55,0,0,1-2.3,0Z"/><path class="cls-39" d="M272.93,402c.38,0,.77,0,1.15,0s.76,0,1.15,0c-.39,0-.77,0-1.15,0S273.31,402,272.93,402Z"/><path class="cls-39" d="M272.93,403.09c.38,0,.77,0,1.15,0s.76,0,1.15,0a16.55,16.55,0,0,1-2.3,0Z"/><path class="cls-39" d="M272.93,404.21a16.55,16.55,0,0,1,2.3,0c-.39,0-.77,0-1.15,0S273.31,404.24,272.93,404.21Z"/><path class="cls-39" d="M272.93,405.32c.38,0,.77,0,1.15,0s.76,0,1.15,0c-.39,0-.77,0-1.15,0S273.31,405.35,272.93,405.32Z"/><path class="cls-39" d="M272.93,406.44a16.55,16.55,0,0,1,2.3,0c-.39,0-.77,0-1.15,0S273.31,406.47,272.93,406.44Z"/><path class="cls-39" d="M272.93,407.55c.38,0,.77,0,1.15,0s.76,0,1.15,0c-.39,0-.77,0-1.15,0S273.31,407.58,272.93,407.55Z"/><path class="cls-39" d="M272.93,408.66c.38,0,.77,0,1.15,0s.76,0,1.15,0a16.55,16.55,0,0,1-2.3,0Z"/><path class="cls-39" d="M272.93,409.78c.38,0,.77,0,1.15,0s.76,0,1.15,0c-.39,0-.77,0-1.15,0S273.31,409.81,272.93,409.78Z"/><path class="cls-39" d="M272.93,410.89c.38,0,.77,0,1.15,0s.76,0,1.15,0a16.55,16.55,0,0,1-2.3,0Z"/><path class="cls-39" d="M272.93,412c.38,0,.77,0,1.15,0a11.14,11.14,0,0,1,1.15,0c-.39,0-.77,0-1.15,0S273.31,412,272.93,412Z"/><path class="cls-39" d="M272.93,413.12c.38,0,.77,0,1.15,0s.76,0,1.15,0a16.55,16.55,0,0,1-2.3,0Z"/><path class="cls-39" d="M272.93,414.24a16.55,16.55,0,0,1,2.3,0c-.39,0-.77,0-1.15,0S273.31,414.27,272.93,414.24Z"/><path class="cls-39" d="M272.93,415.35c.38,0,.77,0,1.15,0s.76,0,1.15,0c-.39,0-.77,0-1.15,0S273.31,415.38,272.93,415.35Z"/><path class="cls-39" d="M272.93,416.47a16.55,16.55,0,0,1,2.3,0c-.39,0-.77,0-1.15,0S273.31,416.5,272.93,416.47Z"/><path class="cls-39" d="M272.93,417.58c.38,0,.77,0,1.15,0s.76,0,1.15,0c-.39,0-.77,0-1.15,0S273.31,417.61,272.93,417.58Z"/><path class="cls-39" d="M272.93,418.69c.38,0,.77,0,1.15,0s.76,0,1.15,0a16.55,16.55,0,0,1-2.3,0Z"/><path class="cls-39" d="M272.93,419.81c.38,0,.77,0,1.15,0s.76,0,1.15,0c-.39,0-.77,0-1.15,0S273.31,419.84,272.93,419.81Z"/><path class="cls-39" d="M272.93,420.92c.38,0,.77,0,1.15,0s.76,0,1.15,0a16.55,16.55,0,0,1-2.3,0Z"/><path class="cls-39" d="M272.67,387.72c.18-.34.38-.66.58-1s.42-.64.65-1c-.17.34-.38.67-.58,1A10.6,10.6,0,0,1,272.67,387.72Z"/><path class="cls-39" d="M272.92,388.07c.34-.17.69-.32,1.05-.47s.71-.29,1.08-.41c-.34.18-.7.33-1.05.48S273.28,388,272.92,388.07Z"/><path class="cls-39" d="M272.93,388.57c.38,0,.77,0,1.15,0a11.11,11.11,0,0,1,1.15.08c-.39,0-.77,0-1.15,0S273.31,388.61,272.93,388.57Z"/></g><path class="cls-39" d="M281.09,422.11h-2.3V388.19a.55.55,0,0,0-.55-.55h-1.42v-2.3h1.42a2.86,2.86,0,0,1,2.85,2.85Z"/><path class="cls-44" d="M281.09,422.11h-2.3V388.19a.55.55,0,0,0-.55-.55h-1.42v-2.3h1.42a2.86,2.86,0,0,1,2.85,2.85Z"/><g class="cls-45"><path class="cls-39" d="M277.79,387.64c0-.39,0-.77,0-1.15s0-.77,0-1.15c0,.38,0,.76,0,1.15S277.82,387.25,277.79,387.64Z"/><path class="cls-39" d="M278.79,389.72c.38,0,.77,0,1.15,0s.77,0,1.15,0c-.38,0-.77,0-1.15,0S279.17,389.75,278.79,389.72Z"/><path class="cls-39" d="M278.79,390.83c.38,0,.77,0,1.15,0s.77,0,1.15,0a16.55,16.55,0,0,1-2.3,0Z"/><path class="cls-39" d="M278.79,392c.38,0,.77,0,1.15,0s.77,0,1.15,0c-.38,0-.77,0-1.15,0S279.17,392,278.79,392Z"/><path class="cls-39" d="M278.79,393.06c.38,0,.77,0,1.15,0s.77,0,1.15,0a16.55,16.55,0,0,1-2.3,0Z"/><path class="cls-39" d="M278.79,394.18a16.55,16.55,0,0,1,2.3,0c-.38,0-.77,0-1.15,0S279.17,394.21,278.79,394.18Z"/><path class="cls-39" d="M278.79,395.29c.38,0,.77,0,1.15,0s.77,0,1.15,0c-.38,0-.77,0-1.15,0S279.17,395.32,278.79,395.29Z"/><path class="cls-39" d="M278.79,396.41a16.55,16.55,0,0,1,2.3,0c-.38,0-.77,0-1.15,0S279.17,396.44,278.79,396.41Z"/><path class="cls-39" d="M278.79,397.52c.38,0,.77,0,1.15,0s.77,0,1.15,0c-.38,0-.77,0-1.15,0S279.17,397.55,278.79,397.52Z"/><path class="cls-39" d="M278.79,398.64a16.55,16.55,0,0,1,2.3,0c-.38,0-.77,0-1.15,0S279.17,398.67,278.79,398.64Z"/><path class="cls-39" d="M278.79,399.75c.38,0,.77,0,1.15,0s.77,0,1.15,0c-.38,0-.77,0-1.15,0S279.17,399.78,278.79,399.75Z"/><path class="cls-39" d="M278.79,400.86c.38,0,.77,0,1.15,0s.77,0,1.15,0a16.55,16.55,0,0,1-2.3,0Z"/><path class="cls-39" d="M278.79,402c.38,0,.77,0,1.15,0s.77,0,1.15,0c-.38,0-.77,0-1.15,0S279.17,402,278.79,402Z"/><path class="cls-39" d="M278.79,403.09c.38,0,.77,0,1.15,0s.77,0,1.15,0a16.55,16.55,0,0,1-2.3,0Z"/><path class="cls-39" d="M278.79,404.21a16.55,16.55,0,0,1,2.3,0c-.38,0-.77,0-1.15,0S279.17,404.24,278.79,404.21Z"/><path class="cls-39" d="M278.79,405.32c.38,0,.77,0,1.15,0s.77,0,1.15,0c-.38,0-.77,0-1.15,0S279.17,405.35,278.79,405.32Z"/><path class="cls-39" d="M278.79,406.44a16.55,16.55,0,0,1,2.3,0c-.38,0-.77,0-1.15,0S279.17,406.47,278.79,406.44Z"/><path class="cls-39" d="M278.79,407.55c.38,0,.77,0,1.15,0s.77,0,1.15,0c-.38,0-.77,0-1.15,0S279.17,407.58,278.79,407.55Z"/><path class="cls-39" d="M278.79,408.66c.38,0,.77,0,1.15,0s.77,0,1.15,0a16.55,16.55,0,0,1-2.3,0Z"/><path class="cls-39" d="M278.79,409.78c.38,0,.77,0,1.15,0s.77,0,1.15,0c-.38,0-.77,0-1.15,0S279.17,409.81,278.79,409.78Z"/><path class="cls-39" d="M278.79,410.89c.38,0,.77,0,1.15,0s.77,0,1.15,0a16.55,16.55,0,0,1-2.3,0Z"/><path class="cls-39" d="M278.79,412c.38,0,.77,0,1.15,0a11,11,0,0,1,1.15,0c-.38,0-.77,0-1.15,0S279.17,412,278.79,412Z"/><path class="cls-39" d="M278.79,413.12c.38,0,.77,0,1.15,0s.77,0,1.15,0a16.55,16.55,0,0,1-2.3,0Z"/><path class="cls-39" d="M278.79,414.24a16.55,16.55,0,0,1,2.3,0c-.38,0-.77,0-1.15,0S279.17,414.27,278.79,414.24Z"/><path class="cls-39" d="M278.79,415.35c.38,0,.77,0,1.15,0s.77,0,1.15,0c-.38,0-.77,0-1.15,0S279.17,415.38,278.79,415.35Z"/><path class="cls-39" d="M278.79,416.47a16.55,16.55,0,0,1,2.3,0c-.38,0-.77,0-1.15,0S279.17,416.5,278.79,416.47Z"/><path class="cls-39" d="M278.79,417.58c.38,0,.77,0,1.15,0s.77,0,1.15,0c-.38,0-.77,0-1.15,0S279.17,417.61,278.79,417.58Z"/><path class="cls-39" d="M278.79,418.69c.38,0,.77,0,1.15,0s.77,0,1.15,0a16.55,16.55,0,0,1-2.3,0Z"/><path class="cls-39" d="M278.79,419.81c.38,0,.77,0,1.15,0s.77,0,1.15,0c-.38,0-.77,0-1.15,0S279.17,419.84,278.79,419.81Z"/><path class="cls-39" d="M278.79,420.92c.38,0,.77,0,1.15,0s.77,0,1.15,0a16.55,16.55,0,0,1-2.3,0Z"/><path class="cls-39" d="M278.53,387.72c.18-.34.38-.66.59-1s.41-.64.64-1c-.17.34-.38.67-.58,1A10.6,10.6,0,0,1,278.53,387.72Z"/><path class="cls-39" d="M278.78,388.07c.34-.17.69-.32,1.05-.47s.71-.29,1.08-.41c-.34.18-.7.33-1.05.48S279.15,388,278.78,388.07Z"/><path class="cls-39" d="M278.79,388.57c.38,0,.77,0,1.15,0a11.11,11.11,0,0,1,1.15.08c-.39,0-.77,0-1.15,0S279.17,388.61,278.79,388.57Z"/></g><polygon class="cls-39" points="195.9 378.41 216.76 370.26 286.43 370.26 265.62 378.41 195.9 378.41"/><polygon class="cls-44" points="195.9 378.41 216.76 370.26 286.43 370.26 265.62 378.41 195.9 378.41"/><polygon class="cls-39" points="219.99 373.7 216.34 373.7 223.43 370.99 227.07 370.99 219.99 373.7"/><polygon class="cls-39" points="210.7 377.26 207.06 377.26 214.14 374.55 217.78 374.55 210.7 377.26"/><polygon class="cls-39" points="224.93 373.7 221.28 373.7 228.37 370.99 232.01 370.99 224.93 373.7"/><polygon class="cls-39" points="215.64 377.26 212 377.26 219.08 374.55 222.72 374.55 215.64 377.26"/><polygon class="cls-39" points="229.87 373.7 226.22 373.7 233.31 370.99 236.95 370.99 229.87 373.7"/><polygon class="cls-39" points="220.58 377.26 216.94 377.26 224.02 374.55 227.66 374.55 220.58 377.26"/><polygon class="cls-39" points="234.81 373.7 231.16 373.7 238.25 370.99 241.89 370.99 234.81 373.7"/><polygon class="cls-39" points="225.52 377.26 221.88 377.26 228.96 374.55 232.6 374.55 225.52 377.26"/><polygon class="cls-39" points="239.75 373.7 236.1 373.7 243.18 370.99 246.83 370.99 239.75 373.7"/><polygon class="cls-39" points="230.46 377.26 226.81 377.26 233.9 374.55 237.54 374.55 230.46 377.26"/><polygon class="cls-39" points="244.69 373.7 241.04 373.7 248.12 370.99 251.77 370.99 244.69 373.7"/><polygon class="cls-39" points="235.4 377.26 231.75 377.26 238.84 374.55 242.48 374.55 235.4 377.26"/><polygon class="cls-39" points="249.63 373.7 245.98 373.7 253.06 370.99 256.71 370.99 249.63 373.7"/><polygon class="cls-39" points="240.34 377.26 236.69 377.26 243.78 374.55 247.42 374.55 240.34 377.26"/><polygon class="cls-39" points="254.57 373.7 250.92 373.7 258 370.99 261.65 370.99 254.57 373.7"/><polygon class="cls-39" points="245.28 377.26 241.63 377.26 248.72 374.55 252.36 374.55 245.28 377.26"/><polygon class="cls-39" points="259.51 373.7 255.86 373.7 262.94 370.99 266.59 370.99 259.51 373.7"/><polygon class="cls-39" points="250.22 377.26 246.57 377.26 253.66 374.55 257.3 374.55 250.22 377.26"/><polygon class="cls-39" points="264.45 373.7 260.8 373.7 267.88 370.99 271.53 370.99 264.45 373.7"/><polygon class="cls-39" points="255.16 377.26 251.51 377.26 258.59 374.55 262.24 374.55 255.16 377.26"/><rect class="cls-39" x="269.07" y="386.4" width="1.63" height="0.69"/><rect class="cls-39" x="268.16" y="387.26" width="1.63" height="0.69"/><rect class="cls-39" x="269.98" y="387.26" width="1.63" height="0.69"/><rect class="cls-39" x="324.9" y="379.49" width="1.63" height="0.69"/><rect class="cls-39" x="299.94" y="402.66" width="1.63" height="0.69"/><rect class="cls-39" x="299.03" y="403.53" width="1.63" height="0.69"/><rect class="cls-39" x="300.85" y="403.53" width="1.63" height="0.69"/><rect class="cls-39" x="290.04" y="393.52" width="1.63" height="0.69"/><rect class="cls-39" x="281.92" y="378.45" width="1.63" height="0.69"/><rect class="cls-39" x="317.63" y="400.43" width="1.63" height="0.69"/><rect class="cls-39" x="270.34" y="410.7" width="1.63" height="0.69"/><rect class="cls-39" x="271.24" y="411.56" width="1.63" height="0.69"/><rect class="cls-39" x="300.75" y="381.57" width="1.63" height="0.69" transform="translate(603.13 763.83) rotate(180)"/><rect class="cls-39" x="301.66" y="380.71" width="1.63" height="0.69" transform="translate(604.95 762.1) rotate(180)"/><rect class="cls-39" x="317.63" y="417.12" width="1.63" height="0.69" transform="translate(636.88 834.93) rotate(180)"/><rect class="cls-39" x="318.53" y="416.25" width="1.63" height="0.69" transform="translate(638.69 833.19) rotate(180)"/><polyline class="cls-39" points="349.94 393.05 352.04 393.05 340.45 383.47 295.18 383.47 283.44 393.05 349.94 393.05"/><polygon class="cls-37" points="330.85 422.11 349.84 422.11 349.84 393.05 340.35 385.27 330.85 393.05 330.85 422.11"/><g class="cls-40"><polygon class="cls-37" points="330.85 422.11 349.84 422.11 349.84 393.05 340.35 385.27 330.85 393.05 330.85 422.11"/></g><g class="cls-46"><rect class="cls-37" x="345.47" y="417.45" width="1.63" height="0.69"/><rect class="cls-37" x="344.57" y="418.31" width="1.63" height="0.69"/><rect class="cls-37" x="346.38" y="418.31" width="1.63" height="0.69"/><rect class="cls-37" x="333.79" y="407.8" width="1.63" height="0.69"/><rect class="cls-37" x="344.87" y="395.07" width="1.63" height="0.69" transform="translate(691.36 790.82) rotate(180)"/><rect class="cls-37" x="345.78" y="394.2" width="1.63" height="0.69" transform="translate(693.18 789.09) rotate(180)"/></g><rect class="cls-35" x="285.58" y="393.05" width="45.27" height="29.06" transform="translate(616.43 815.15) rotate(180)"/><g class="cls-47"><rect class="cls-35" x="285.58" y="393.05" width="45.27" height="29.06" transform="translate(616.43 815.15) rotate(180)"/></g><g class="cls-46"><rect class="cls-35" x="326.62" y="395.68" width="1.63" height="0.69" transform="translate(654.86 792.04) rotate(180)"/><rect class="cls-35" x="327.52" y="394.81" width="1.63" height="0.69" transform="translate(656.68 790.31) rotate(180)"/><rect class="cls-35" x="325.71" y="394.81" width="1.63" height="0.69" transform="translate(653.05 790.31) rotate(180)"/><rect class="cls-35" x="302.24" y="394.81" width="1.63" height="0.69"/><rect class="cls-35" x="317.22" y="407.17" width="1.63" height="0.69"/><rect class="cls-35" x="287.89" y="420.58" width="1.63" height="0.69"/><rect class="cls-35" x="327.21" y="414.04" width="1.63" height="0.69"/><rect class="cls-35" x="328.12" y="414.91" width="1.63" height="0.69"/><rect class="cls-35" x="286.98" y="402.74" width="1.63" height="0.69" transform="translate(575.58 806.17) rotate(180)"/><rect class="cls-35" x="287.89" y="401.88" width="1.63" height="0.69" transform="translate(577.4 804.44) rotate(180)"/></g><rect class="cls-48" x="289.99" y="408.66" width="17.18" height="13.44"/><rect class="cls-39" x="289.99" y="408.66" width="17.18" height="3.15"/><rect class="cls-44" x="289.99" y="408.9" width="17.18" height="0.2"/><rect class="cls-44" x="289.99" y="409.39" width="17.18" height="0.2"/><rect class="cls-44" x="289.99" y="409.89" width="17.18" height="0.2"/><rect class="cls-44" x="289.99" y="410.38" width="17.18" height="0.2"/><rect class="cls-44" x="289.99" y="410.88" width="17.18" height="0.2"/><rect class="cls-44" x="289.99" y="411.37" width="17.18" height="0.2"/><rect class="cls-48" x="309.25" y="408.66" width="17.18" height="13.44"/><rect class="cls-39" x="309.25" y="408.66" width="17.18" height="3.15"/><rect class="cls-44" x="309.25" y="408.9" width="17.18" height="0.2"/><rect class="cls-44" x="309.25" y="409.39" width="17.18" height="0.2"/><rect class="cls-44" x="309.25" y="409.89" width="17.18" height="0.2"/><rect class="cls-44" x="309.25" y="410.38" width="17.18" height="0.2"/><rect class="cls-44" x="309.25" y="410.88" width="17.18" height="0.2"/><rect class="cls-44" x="309.25" y="411.37" width="17.18" height="0.2"/><polygon class="cls-41" points="309.82 396.71 309.27 397.16 309.27 396.71 309.82 396.71"/><rect class="cls-42" x="299.64" y="396.72" width="7.55" height="8.85"/><polygon class="cls-41" points="307.17 396.71 299.64 402.8 299.64 401.9 306.07 396.71 307.17 396.71"/><polygon class="cls-41" points="299.64 404.49 307.2 398.38 307.2 398.83 299.64 404.93 299.64 404.49"/><polygon class="cls-41" points="300.75 396.71 299.64 397.61 299.64 397.17 300.2 396.71 300.75 396.71"/><rect class="cls-42" x="289.99" y="396.72" width="7.55" height="8.85"/><polygon class="cls-41" points="292.82 396.71 289.99 399 289.99 397.22 290.62 396.71 292.82 396.71"/><polygon class="cls-41" points="297.55 398.16 297.55 399.06 289.99 405.16 289.99 404.26 297.55 398.16"/><polygon class="cls-41" points="297.55 402.01 297.55 402.46 293.7 405.56 293.15 405.56 297.55 402.01"/><rect class="cls-42" x="309.27" y="396.72" width="7.55" height="8.85"/><polygon class="cls-41" points="310.56 405.56 316.82 400.51 316.82 402.29 312.77 405.56 310.56 405.56"/><polygon class="cls-41" points="309.27 404.75 316.82 398.66 316.82 399.11 309.27 405.2 309.27 404.75"/><rect class="cls-42" x="318.89" y="396.72" width="7.55" height="8.85"/><polygon class="cls-41" points="318.89 404.99 326.44 398.89 326.44 400.67 320.39 405.56 318.89 405.56 318.89 404.99"/><polygon class="cls-41" points="323.73 396.71 318.89 400.62 318.89 398.84 321.52 396.71 323.73 396.71"/><polygon class="cls-41" points="319.78 396.71 318.89 397.43 318.89 396.98 319.22 396.71 319.78 396.71"/><circle class="cls-42" cx="340.34" cy="393.05" r="2.23"/><rect class="cls-48" x="337.38" y="408.31" width="5.93" height="13.79"/><rect class="cls-35" x="343.31" y="408.31" width="0.72" height="13.79" transform="translate(687.34 830.42) rotate(180)"/></g><g id="factory2"><polygon class="cls-37" points="165.31 367.66 117.93 384.15 117.93 422.47 165.31 422.47 165.31 367.66"/><rect class="cls-42" x="143.98" y="393.86" width="15.52" height="13.26"/><polygon class="cls-41" points="159.51 393.85 159.51 394 144.16 407.11 143.99 407.11 143.99 404.01 155.88 393.85 159.51 393.85"/><polygon class="cls-41" points="159.51 400.15 159.51 401.77 153.25 407.11 151.35 407.11 159.51 400.15"/><rect class="cls-42" x="123.73" y="393.86" width="15.52" height="13.26"/><polygon class="cls-41" points="139.25 394.17 139.25 395.78 125.98 407.11 124.1 407.11 139.25 394.17"/><rect class="cls-39" x="125.96" y="410.63" width="3.62" height="1.53"/><rect class="cls-39" x="158.11" y="418.72" width="3.62" height="1.53"/><rect class="cls-39" x="149.79" y="384.04" width="3.62" height="1.53" transform="translate(303.19 769.61) rotate(180)"/><rect class="cls-39" x="151.81" y="382.11" width="3.62" height="1.53" transform="translate(307.23 765.76) rotate(180)"/><rect class="cls-35" x="79.4" y="384.15" width="38.52" height="38.31"/><rect class="cls-39" x="106.01" y="412.32" width="3.62" height="1.53"/><rect class="cls-39" x="103.99" y="414.25" width="3.62" height="1.53"/><rect class="cls-39" x="108.03" y="414.25" width="3.62" height="1.53"/><rect class="cls-39" x="83.99" y="391.99" width="3.62" height="1.53"/><rect class="cls-42" x="90.91" y="393.86" width="15.52" height="13.26"/><polygon class="cls-41" points="106.42 396.59 106.42 403.07 101.69 407.11 94.1 407.11 106.42 396.59"/><polygon class="cls-39" points="165.31 367.66 126.79 367.66 79.4 384.15 117.93 384.15 165.31 367.66"/></g><g id="factory3"><rect class="cls-35" x="201.83" y="356.63" width="9.18" height="3"/><rect class="cls-37" x="208.63" y="356.63" width="2.38" height="3"/><rect class="cls-35" x="159.85" y="359.63" width="38.43" height="63.06" transform="translate(358.13 782.31) rotate(180)"/><rect class="cls-39" x="159.85" y="359.63" width="38.43" height="1.32" transform="translate(358.13 720.58) rotate(180)"/><rect class="cls-42" x="189.16" y="362.88" width="5.51" height="4.45" transform="translate(383.83 730.21) rotate(180)"/><rect class="cls-42" x="180.59" y="362.88" width="5.51" height="4.45" transform="translate(366.7 730.21) rotate(180)"/><rect class="cls-42" x="172.02" y="362.88" width="5.51" height="4.45" transform="translate(349.56 730.21) rotate(180)"/><rect class="cls-42" x="163.46" y="362.88" width="5.51" height="4.45" transform="translate(332.42 730.21) rotate(180)"/><polygon class="cls-41" points="163.46 363.23 163.46 365.4 165.84 367.33 168.54 367.33 163.46 363.23"/><polygon class="cls-41" points="180.59 362.88 180.59 362.93 186.04 367.33 186.1 367.33 186.1 366.29 181.88 362.88 180.59 362.88"/><polygon class="cls-41" points="180.59 364.99 180.59 365.54 182.81 367.33 183.49 367.33 180.59 364.99"/><polygon class="cls-41" points="189.16 362.99 189.16 363.53 193.87 367.33 194.54 367.33 189.16 362.99"/><polygon class="cls-41" points="165.15 362.88 168.97 365.96 168.97 365.42 165.83 362.88 165.15 362.88"/><path class="cls-49" d="M180.15,335.85V320.53c0-3.48-2.92-7.63-3.55-10.16s.49-7.48-2.53-9.71-5.22-.59-8.28-3.66-9.66-7.28-14.09-2.9,1.89,10.38,2.79,11.66,0,4.29,2.57,6.77c1.77,1.73,5.38,1,7.54,2.79,1.66,1.37,2.24,4.81,4.86,6s5.52.7,6.91,2c3.41,3.24,3.18,11.55,3.18,12.52Z"/><polygon class="cls-37" points="175.46 333.68 183.84 333.68 185.61 359.63 173.69 359.63 175.46 333.68"/><rect class="cls-39" x="174.97" y="332.67" width="9.36" height="1.01" transform="translate(359.3 666.34) rotate(180)"/><rect class="cls-44" x="174.97" y="332.67" width="9.36" height="1.01" transform="translate(359.3 666.34) rotate(180)"/><rect class="cls-39" x="173.24" y="352.45" width="13.01" height="1.42"/><rect class="cls-44" x="173.24" y="352.45" width="13.01" height="1.42"/><rect class="cls-39" x="173.24" y="349.94" width="13.01" height="1.42"/><rect class="cls-44" x="173.24" y="349.94" width="13.01" height="1.42"/><rect class="cls-39" x="173.24" y="347.44" width="13.01" height="1.42"/><rect class="cls-44" x="173.24" y="347.44" width="13.01" height="1.42"/><rect class="cls-37" x="198.28" y="359.63" width="15.86" height="63.06" transform="translate(412.42 782.31) rotate(180)"/><rect class="cls-39" x="198.28" y="359.63" width="15.86" height="1.32" transform="translate(412.42 720.58) rotate(180)"/><path class="cls-48" d="M206,422.72h-.32V358.89a.6.6,0,0,0-1.2,0v.74h-.32v-.74a.92.92,0,0,1,1.84,0Z"/><path class="cls-48" d="M208.31,422.72H208V358.89a.6.6,0,1,0-1.2,0v.74h-.32v-.74a.92.92,0,1,1,1.84,0Z"/><rect class="cls-48" x="205.79" y="360.79" width="2.36" height="0.32"/><rect class="cls-48" x="205.79" y="361.99" width="2.36" height="0.32"/><rect class="cls-48" x="205.79" y="363.18" width="2.36" height="0.32"/><rect class="cls-48" x="205.79" y="364.38" width="2.36" height="0.32"/><rect class="cls-48" x="205.79" y="365.58" width="2.36" height="0.32"/><rect class="cls-48" x="205.79" y="366.77" width="2.36" height="0.32"/><rect class="cls-48" x="205.79" y="367.97" width="2.36" height="0.32"/><rect class="cls-48" x="205.79" y="369.16" width="2.36" height="0.32"/><rect class="cls-48" x="205.79" y="370.36" width="2.36" height="0.32"/><rect class="cls-48" x="205.79" y="371.56" width="2.36" height="0.32"/><rect class="cls-48" x="205.79" y="372.75" width="2.36" height="0.32"/><rect class="cls-48" x="205.79" y="373.95" width="2.36" height="0.32"/><rect class="cls-48" x="205.79" y="375.15" width="2.36" height="0.32"/><rect class="cls-48" x="205.79" y="376.34" width="2.36" height="0.32"/><rect class="cls-48" x="205.79" y="377.54" width="2.36" height="0.32"/><rect class="cls-48" x="205.79" y="378.74" width="2.36" height="0.32"/><rect class="cls-48" x="205.79" y="379.93" width="2.36" height="0.32"/><rect class="cls-48" x="205.79" y="381.13" width="2.36" height="0.32"/><rect class="cls-48" x="205.79" y="382.33" width="2.36" height="0.32"/><rect class="cls-48" x="205.79" y="383.52" width="2.36" height="0.32"/><rect class="cls-48" x="205.79" y="384.72" width="2.36" height="0.32"/><rect class="cls-48" x="205.79" y="385.92" width="2.36" height="0.32"/><rect class="cls-48" x="205.79" y="387.11" width="2.36" height="0.32"/><rect class="cls-48" x="205.79" y="388.31" width="2.36" height="0.32"/><rect class="cls-48" x="205.79" y="389.5" width="2.36" height="0.32"/><rect class="cls-48" x="205.79" y="390.7" width="2.36" height="0.32"/><rect class="cls-48" x="205.79" y="391.9" width="2.36" height="0.32"/><rect class="cls-48" x="205.79" y="393.09" width="2.36" height="0.32"/><rect class="cls-48" x="205.79" y="394.29" width="2.36" height="0.32"/><rect class="cls-48" x="205.79" y="395.49" width="2.36" height="0.32"/><rect class="cls-48" x="205.79" y="396.68" width="2.36" height="0.32"/><rect class="cls-48" x="205.79" y="397.88" width="2.36" height="0.32"/><rect class="cls-48" x="205.79" y="399.08" width="2.36" height="0.32"/><rect class="cls-48" x="205.79" y="400.27" width="2.36" height="0.32"/><rect class="cls-48" x="205.79" y="401.47" width="2.36" height="0.32"/><rect class="cls-48" x="205.79" y="402.67" width="2.36" height="0.32"/><rect class="cls-48" x="205.79" y="403.86" width="2.36" height="0.32"/><rect class="cls-48" x="205.79" y="405.06" width="2.36" height="0.32"/><rect class="cls-48" x="205.79" y="406.25" width="2.36" height="0.32"/><rect class="cls-48" x="205.79" y="407.45" width="2.36" height="0.32"/><rect class="cls-48" x="205.79" y="408.65" width="2.36" height="0.32"/><rect class="cls-48" x="205.79" y="409.84" width="2.36" height="0.32"/><rect class="cls-48" x="205.79" y="411.04" width="2.36" height="0.32"/><rect class="cls-48" x="205.79" y="412.24" width="2.36" height="0.32"/><rect class="cls-48" x="205.79" y="413.43" width="2.36" height="0.32"/><rect class="cls-48" x="205.79" y="414.63" width="2.36" height="0.32"/><rect class="cls-48" x="205.79" y="415.83" width="2.36" height="0.32"/><rect class="cls-48" x="205.79" y="417.02" width="2.36" height="0.32"/><rect class="cls-48" x="205.79" y="418.22" width="2.36" height="0.32"/><rect class="cls-48" x="205.79" y="419.42" width="2.36" height="0.32"/><rect class="cls-48" x="205.79" y="420.61" width="2.36" height="0.32"/><rect class="cls-48" x="205.79" y="421.81" width="2.36" height="0.32"/><rect class="cls-35" x="189.38" y="356.63" width="9.18" height="3"/><rect class="cls-37" x="196.18" y="356.63" width="2.38" height="3"/><rect class="cls-39" x="161.93" y="368.78" width="1.63" height="0.69"/><rect class="cls-39" x="161.02" y="369.65" width="1.63" height="0.69"/><rect class="cls-39" x="162.83" y="369.65" width="1.63" height="0.69"/><rect class="cls-39" x="210.91" y="362.1" width="1.63" height="0.69"/><rect class="cls-39" x="210.01" y="362.97" width="1.63" height="0.69"/><rect class="cls-39" x="211.82" y="362.97" width="1.63" height="0.69"/><rect class="cls-39" x="201.02" y="365.39" width="1.63" height="0.69"/><rect class="cls-39" x="177.97" y="362.1" width="1.63" height="0.69"/><rect class="cls-39" x="194.69" y="368.78" width="1.63" height="0.69" transform="translate(391.01 738.25) rotate(180)"/><rect class="cls-39" x="195.6" y="367.91" width="1.63" height="0.69" transform="translate(392.82 736.51) rotate(180)"/></g></g></g></svg>