<svg width="42" height="10" xmlns="http://www.w3.org/2000/svg"><g fill="none" fill-rule="evenodd"><path d="M11.737.005l.063.016c.196.07.158.297.05.534L7.606 10H4.338L2.059 4.929l.018-.007a1.224 1.224 0 01-.068-.28L2 4.491a1.232 1.232 0 012.303-.608l.005-.003 1.663 3.7 2.79-6.21c.303-.726.837-1.164 1.6-1.313a9.85 9.85 0 011.376-.053z" fill="#3094FC"/><path d="M12.977 2.821c1.547 0 2.47.962 2.47 2.613v1.534H12.08v.403c0 .819.325 1.183.897 1.183.611 0 .832-.26.949-.858h1.547c-.13 1.469-1.04 2.327-2.522 2.327-1.495 0-2.405-.988-2.405-2.652V5.859l1.225-2.78c.295-.147.64-.233 1.026-.253zm20.332 0c1.547 0 2.47.962 2.47 2.613v1.534h-3.367v.403c0 .819.325 1.183.897 1.183.611 0 .832-.26.949-.858h1.547c-.13 1.469-1.04 2.327-2.522 2.327-1.495 0-2.405-.988-2.405-2.652V5.434c0-1.651.91-2.613 2.431-2.613zM41.681.442V9.88h-1.079l-.078-.637c-.338.429-.936.78-1.521.78-1.313 0-2.197-1.04-2.197-2.691V5.499c0-1.638.871-2.678 2.197-2.678.429 0 .858.182 1.17.455V.442h1.508zM19.555 2.834c.299 0 .546.039.741.13v1.482a2.128 2.128 0 00-.845-.169c-.793 0-1.287.507-1.287 1.508v4.082H16.63V2.99h1.04l.143.819c.364-.637.949-.975 1.742-.975zm3.094.156v6.877h-1.534V2.99h1.534zm4.68-2.73v1.391H26.9c-.663 0-.936.312-.936 1.079v.26h1.235v1.404h-1.235v5.473h-1.521V4.394h-.975V2.99h.975v-.26c0-1.417.715-2.47 2.457-2.47h.429zm2.301 2.73v6.877h-1.534V2.99h1.534zm9.62 1.3c-.572 0-.884.377-.884 1.209v1.833c0 .832.325 1.235.884 1.235.572 0 .923-.416.923-1.235V5.499c0-.78-.338-1.209-.923-1.209zm-26.26-.039c-.585 0-.91.364-.91 1.17v.455h1.846v-.455c0-.806-.325-1.17-.936-1.17zm20.332 0c-.585 0-.91.364-.91 1.17v.455h1.846v-.455c0-.806-.325-1.17-.936-1.17zM21.882.13c.507 0 .897.377.897.897 0 .481-.39.897-.897.897-.52 0-.884-.39-.884-.897 0-.52.364-.897.884-.897zm6.981 0c.507 0 .897.377.897.897 0 .481-.39.897-.897.897-.52 0-.884-.39-.884-.897 0-.52.364-.897.884-.897z" fill="#005CCC"/></g></svg>