<svg xmlns="http://www.w3.org/2000/svg" xmlns:xlink="http://www.w3.org/1999/xlink" width="74" height="74" viewBox="0 0 74 74">
  <defs>
    <clipPath id="clip-path">
      <rect id="Boundary" width="74" height="74" transform="translate(-0.001)" fill="none" opacity="0"/>
    </clipPath>
  </defs>
  <g id="Mask_Group_76" data-name="Mask Group 76" transform="translate(0.001)" clip-path="url(#clip-path)">
    <path id="Path_storefront" data-name="Path / storefront" d="M11.424,3A6.247,6.247,0,0,0,7.662,4.3,5.473,5.473,0,0,0,5.5,7.625l-3.176,13.6a9.8,9.8,0,0,0,1.788,8.695c.37.37.74.74,1.079,1.048a9.1,9.1,0,0,0,6.722,2.868A9.858,9.858,0,0,0,18.855,30.9a9.86,9.86,0,0,0,13.968.062,10.135,10.135,0,0,0,7.092,2.868A9.54,9.54,0,0,0,46.82,30.9a9.63,9.63,0,0,0,7,2.929,8.825,8.825,0,0,0,6.752-2.9c.277-.277.555-.586.863-.894a9.832,9.832,0,0,0,1.881-8.818L60.14,7.625A6.222,6.222,0,0,0,57.89,4.3,5.8,5.8,0,0,0,54.22,3m-.154,6.074,3.33,13.6a4.149,4.149,0,0,1-.863,3.607,3.518,3.518,0,0,1-2.9,1.388,3.18,3.18,0,0,1-2.467-1.048,4.079,4.079,0,0,1-1.141-2.528L48.146,9.167m-36.722,0H17.5L15.617,24.09c-.37,2.436-1.573,3.577-3.608,3.577a3.294,3.294,0,0,1-2.9-1.388,4.149,4.149,0,0,1-.863-3.607M23.726,9.167h6.013V23.658a3.98,3.98,0,0,1-1.11,2.837,3.813,3.813,0,0,1-2.9,1.172A3.2,3.2,0,0,1,23.079,26.4a4.454,4.454,0,0,1-1.048-2.868v-.493M35.905,9.167h6.013l1.7,13.875a3.475,3.475,0,0,1-.894,3.3,3.892,3.892,0,0,1-3.114,1.326,3.485,3.485,0,0,1-2.59-1.172,3.98,3.98,0,0,1-1.11-2.837M5.072,37.009V52.333A6.145,6.145,0,0,0,11.239,58.5H54.405a6.165,6.165,0,0,0,6.167-6.167V37.071A9.114,9.114,0,0,1,54.405,40a9.657,9.657,0,0,1-7.585-2.929A9.791,9.791,0,0,1,39.914,40a10.237,10.237,0,0,1-7.092-2.867A9.648,9.648,0,0,1,25.977,40a9.916,9.916,0,0,1-7.123-2.929A9.648,9.648,0,0,1,11.948,40,9.533,9.533,0,0,1,5.072,37.009Z" transform="translate(4.161 6.25)" fill="#304ffe"/>
  </g>
</svg>
