<svg xmlns="http://www.w3.org/2000/svg" xmlns:xlink="http://www.w3.org/1999/xlink" width="24" height="24" viewBox="0 0 24 24">
  <defs>
    <clipPath id="clip-path">
      <rect id="Rectangle_2869" data-name="Rectangle 2869" width="24" height="24" transform="translate(294 340)" fill="#505050"/>
    </clipPath>
  </defs>
  <g id="Mask_Group_31" data-name="Mask Group 31" transform="translate(-294 -340)" clip-path="url(#clip-path)">
    <path id="__TEMP__SVG__" d="M13.208.225a11.644,11.644,0,0,1,7.672,3.85A11.53,11.53,0,0,1,24,12.141a11.742,11.742,0,0,1-1.068,4.89l-3.148-1.855a7.989,7.989,0,0,0,.618-3.035,8.074,8.074,0,0,0-2.079-5.508,8.243,8.243,0,0,0-5.115-2.811V.225Zm-1.236,20.29a8.042,8.042,0,0,0,6.576-3.148l3.091,1.855a11.878,11.878,0,0,1-9.667,4.89A11.532,11.532,0,0,1,3.513,20.6,11.527,11.527,0,0,1,0,12.141,11.53,11.53,0,0,1,3.119,4.075,11.646,11.646,0,0,1,10.792.225v3.6A8.167,8.167,0,0,0,5.649,6.632,8.137,8.137,0,0,0,3.6,12.141a8.075,8.075,0,0,0,2.445,5.93,8.075,8.075,0,0,0,5.93,2.445Z" transform="translate(294 339.832)" fill="#505050"/>
  </g>
</svg>
