<svg xmlns="http://www.w3.org/2000/svg" xmlns:xlink="http://www.w3.org/1999/xlink" width="24" height="24" viewBox="0 0 24 24">
  <defs>
    <clipPath id="clip-path">
      <rect id="Rectangle_48" data-name="Rectangle 48" width="24" height="24" fill="#505050"/>
    </clipPath>
  </defs>
  <g id="Group_658" data-name="Group 658" transform="translate(-1111 -221)">
    <g id="Mask_Group_15" data-name="Mask Group 15" transform="translate(1111 221)" clip-path="url(#clip-path)">
      <path id="__TEMP__SVG__" d="M17.179,15.12,24,21.94,21.94,24l-6.82-6.82V16.085l-.386-.386a8.7,8.7,0,0,1-5.791,2.123,8.625,8.625,0,0,1-6.337-2.606A8.59,8.59,0,0,1,0,8.911,8.591,8.591,0,0,1,2.606,2.605,8.586,8.586,0,0,1,8.912,0a8.593,8.593,0,0,1,6.306,2.606,8.623,8.623,0,0,1,2.605,6.338A8.7,8.7,0,0,1,15.7,14.734l.386.386H17.18Zm-8.236,0a5.957,5.957,0,0,0,4.375-1.8,5.957,5.957,0,0,0,1.8-4.375,5.957,5.957,0,0,0-1.8-4.375,5.957,5.957,0,0,0-4.375-1.8,5.957,5.957,0,0,0-4.375,1.8,5.957,5.957,0,0,0-1.8,4.375,5.957,5.957,0,0,0,1.8,4.375A5.957,5.957,0,0,0,8.943,15.12Z" transform="translate(0 0.001)" fill="#505050"/>
    </g>
  </g>
</svg>
