<svg xmlns="http://www.w3.org/2000/svg" xmlns:xlink="http://www.w3.org/1999/xlink" width="24" height="24" viewBox="0 0 24 24">
  <defs>
    <clipPath id="clip-path">
      <rect id="Rectangle_2868" data-name="Rectangle 2868" width="24" height="24" transform="translate(294 340)" fill="#505050"/>
    </clipPath>
  </defs>
  <g id="Mask_Group_30" data-name="Mask Group 30" transform="translate(-294 -340)" clip-path="url(#clip-path)">
    <path id="__TEMP__SVG__" d="M12,.169a11.563,11.563,0,0,1,8.487,3.513A11.531,11.531,0,0,1,24,12.141,11.531,11.531,0,0,1,20.487,20.6,11.563,11.563,0,0,1,12,24.113,11.563,11.563,0,0,1,3.513,20.6,11.533,11.533,0,0,1,0,12.141,11.527,11.527,0,0,1,3.513,3.681,11.565,11.565,0,0,1,12,.169ZM10.792,21.639v-2.3a2.4,2.4,0,0,1-2.417-2.417v-1.18L2.642,10a10.917,10.917,0,0,0-.225,2.136,9.272,9.272,0,0,0,2.389,6.352A9.278,9.278,0,0,0,10.792,21.639ZM19.054,18.6a9.247,9.247,0,0,0,2.529-6.464A9.526,9.526,0,0,0,15.569,3.26v.506a2.266,2.266,0,0,1-.7,1.658,2.271,2.271,0,0,1-1.658.7H10.792V8.543a1.1,1.1,0,0,1-.366.843,1.174,1.174,0,0,1-.815.337H7.195V12.14h7.195a1.1,1.1,0,0,1,.843.366,1.174,1.174,0,0,1,.337.815v3.6h1.236a2.236,2.236,0,0,1,1.4.478,2.383,2.383,0,0,1,.843,1.209Z" transform="translate(294 339.859)" fill="#505050"/>
  </g>
</svg>
